<svg width="423" height="343" viewBox="0 0 423 343" fill="none" xmlns="http://www.w3.org/2000/svg">
<path d="M374.984 0.0644531H99.4964L0.375 274.565L47.8743 342.302H333.511L422.911 65.8569L374.984 0.0644531ZM312.48 312.922C312.429 312.953 312.398 312.983 312.337 313.014H63.1135C50.4091 294.894 45.8078 288.348 33.1033 270.228L120.375 29.4537C120.426 29.4232 120.457 29.3927 120.518 29.3621H360.081C372.826 46.8613 377.702 53.5699 390.447 71.069L312.469 312.922H312.48Z" fill="#F8FFDD"/>
<path d="M267.91 58.7617L257.292 89.963H321.069L300.119 153.2H332.287L352.952 89.963L358.195 73.9195C353.573 67.5571 351.822 65.1241 347.201 58.7617H267.899H267.91Z" fill="#C2EF13"/>
<path d="M204.207 153.211L236.752 58.7617H141.499L130.331 89.963L107.691 153.2H204.207V153.211ZM151.088 121.449L162.215 89.963H194.108L183.124 121.449H151.098H151.088Z" fill="#C2EF13"/>
<path d="M128.538 185.258H96.2268L72.9759 250.205L67.3159 266.015C71.9274 272.56 73.5969 274.932 78.2084 281.478H160.014L171.354 248.577H106.162L128.548 185.258H128.538Z" fill="#C2EF13"/>
<path d="M311.013 185.258H224.881L213.887 217.589L202.791 250.205L195.35 272.072L192.703 279.839L191.583 283.127H289.839L290.908 279.839L297.372 260.039L300.589 250.205L321.814 185.258H311.003H311.013ZM235.387 250.205L246.341 217.589H278.804L268.003 250.205H235.397H235.387Z" fill="#C2EF13"/>
</svg>
