<svg width="593" height="469" viewBox="0 0 593 469" fill="none" xmlns="http://www.w3.org/2000/svg">
<path d="M462.794 468.013H46.7619C28.7984 441.697 18.7374 426.943 0.773926 400.627L130.704 0.963379H546.754C564.718 27.2798 574.779 42.0335 592.742 68.3498L462.794 468.013Z" fill="#262626"/>
<path d="M163.91 51.1184L62.6237 362.617H210.611L236.627 282.597H177.425L224.464 137.914H431.823L368.172 333.672H279.387L314.807 224.728H255.454L264.858 195.783H353.812L318.392 304.728H347.993L392.836 166.839H244.68L216.449 253.653H275.802L240.381 362.598H388.369L470.828 108.969H204.286L138.438 311.523H197.641L190.433 333.672H101.648L184.107 80.0439H509.852L408.566 391.542H53.2384L51.3613 397.342C57.5369 406.371 60.9907 411.439 67.1475 420.486H428.763L541.349 74.2626C535.174 65.2151 531.72 60.1658 525.563 51.1184H163.947H163.91Z" fill="#C2EF13"/>
</svg>
