<svg width="593" height="467" viewBox="0 0 593 467" fill="none" xmlns="http://www.w3.org/2000/svg">
<path d="M462.985 466.357H48.1548C29.7033 439.365 19.3607 424.217 0.90918 397.225L130.013 0.620605H544.844C563.295 27.6127 573.638 42.7606 592.089 69.7527L462.966 466.338L462.985 466.357Z" fill="#262626"/>
<path d="M383.98 49.3113L349.723 154.558H295.683L329.939 49.3113H167.799L116.405 207.172H170.445L204.702 101.925H258.742L224.486 207.172H386.626L420.883 101.925H473.928L405.416 312.4H459.456L535.139 79.9074C526.974 67.9505 522.394 61.2494 514.229 49.3113H383.961H383.98Z" fill="#C2EF13"/>
<path d="M298.33 312.419H351.375L368.513 259.805H99.2673L82.1297 312.419H244.27L227.133 365.033H64.9922L57.8218 387.051C65.987 399.007 70.567 405.709 78.7323 417.647H425.181L442.319 365.033H281.173L298.311 312.419H298.33Z" fill="#C2EF13"/>
</svg>
