<svg width="589" height="468" viewBox="0 0 589 468" fill="none" xmlns="http://www.w3.org/2000/svg">
<path d="M460.448 467.327H47.7579C29.3815 440.204 19.0952 425 0.71875 397.895L128.96 0.277344H539.66C558.562 28.1892 569.168 43.8251 588.07 71.737L460.467 467.327H460.448Z" fill="#262626"/>
<path d="M497.277 155.961H348.557L331.533 208.725L314.508 261.489H260.73L311.786 103.178H514.283L523.443 74.8154C517.024 65.3174 513.345 59.9115 506.906 50.4136H275.033L258.008 103.178L189.927 314.253H351.26L358.825 290.809L368.285 261.489L385.31 208.725H439.088L388.032 367.017H119.143L221.274 50.4323H167.496L56.2241 395.398C62.6437 404.878 66.3227 410.302 72.761 419.8H424.785L509.891 155.961H497.277Z" fill="#C2EF13"/>
</svg>
