<svg width="427" height="344" viewBox="0 0 427 344" fill="none" xmlns="http://www.w3.org/2000/svg">
<path d="M382.283 0.0371094H91.2167L0.738281 278.328L45.0063 343.187H336.061L426.551 64.9073L382.283 0.0371094ZM315.91 315.44H59.666C48.6019 299.231 42.4051 290.144 31.3409 273.946L111.368 27.7841H367.623C378.687 43.993 384.884 53.0802 395.948 69.2891L315.91 315.44Z" fill="#F8FFDD"/>
<path d="M131.819 58.6641L69.4342 250.523H160.583L176.607 201.238H140.143L169.115 112.123H296.833L257.628 232.696H202.944L224.76 165.594H188.203L193.995 147.767H248.784L226.968 214.868H245.2L272.82 129.939H181.567L164.179 183.41H200.735L178.919 250.512H270.068L320.857 94.2959H156.687L116.13 219.053H152.594L148.155 232.696H93.47L144.259 76.48H344.893L282.508 268.339H63.642L62.4858 271.911C66.2895 277.472 68.4168 280.594 72.2089 286.167H294.937L364.281 72.9191C360.477 67.3466 358.35 64.2366 354.558 58.6641H131.819Z" fill="#C2EF13"/>
</svg>
