<svg width="592" height="469" viewBox="0 0 592 469" fill="none" xmlns="http://www.w3.org/2000/svg">
<path d="M463.185 467.995L48.2233 468.032L0.0390625 400.083L130.27 1.1513L130.495 0.982365L539.412 0.944824C561.224 30.9215 569.558 42.3715 591.219 72.1417L463.41 467.845L463.185 467.995Z" fill="#262626"/>
<path d="M382.996 51.2502L365.99 104.127H473.865L439.815 209.768H493.705L527.793 104.108L536.54 76.9659C528.656 66.1728 525.653 62.0433 517.75 51.2126H382.996V51.2502Z" fill="#C2EF13"/>
<path d="M279.138 209.787L330.044 51.2502H276.097H222.15H168.204L151.273 104.146L117.467 209.787H171.357H225.248H278.143H279.138ZM188.27 156.985L205.201 104.146H259.129L242.179 156.985H188.27Z" fill="#C2EF13"/>
<path d="M154.445 262.57H100.574L66.8242 368.004L58.7153 393.363C66.8055 403.819 69.7336 407.61 77.805 418.047H212.259L229.171 365.376H121.503L154.445 262.589V262.57Z" fill="#C2EF13"/>
<path d="M458.661 262.532H422.809H315.066L298.116 315.259L281.166 367.948L269.904 402.974L265.925 415.362L264.235 420.599H425.681L427.371 415.362L437.582 383.734L442.669 367.948L476.681 262.532H458.661ZM335.001 367.967L351.969 315.278H405.822L388.835 367.967H335.001Z" fill="#C2EF13"/>
</svg>
