<svg width="423" height="343" viewBox="0 0 423 343" fill="none" xmlns="http://www.w3.org/2000/svg">
<path d="M377.211 0.240234H89.7069L0.480469 276.868L45.2438 342.933H333.971L422.805 67.5526L377.211 0.240234ZM313.789 315.223H59.9417C48.6383 298.551 42.2996 289.199 30.9962 272.515L109.889 27.9503H362.513C374.139 45.119 380.663 54.7367 392.29 71.9054L313.789 315.223Z" fill="#F8FFDD"/>
<path d="M336.44 123.71H244.962L234.49 156.165L224.018 188.62H190.939L222.343 91.2425H346.9L352.535 73.7967C348.586 67.9545 346.323 64.6293 342.363 58.7871H199.737L189.265 91.2425L147.388 221.076H246.624L251.277 206.655L257.096 188.62L267.569 156.165H300.648L269.243 253.531H103.848L166.669 58.7871H133.59L65.1465 270.977C69.0952 276.808 71.3582 280.144 75.3184 285.987H291.85L344.199 123.698H336.44V123.71Z" fill="#C2EF13"/>
</svg>
