<svg width="428" height="345" viewBox="0 0 428 345" fill="none" xmlns="http://www.w3.org/2000/svg">
<path d="M381.961 0.439453H90.4196L0.0507812 278.036L45.3106 344.266H336.852L427.233 66.6689L381.961 0.439453ZM316.614 316.399H60.0218C48.6082 299.691 42.1989 290.332 30.7852 273.636L110.646 28.306H367.262C378.675 45.0027 385.073 54.3728 396.487 71.0695L316.614 316.399Z" fill="#F8FFDD"/>
<path d="M267.747 58.4258L246.557 123.529H213.129L234.319 58.4258H134.022L102.231 156.075H135.66L156.85 90.9716H190.278L169.088 156.075H269.384L290.574 90.9716H323.387L281.007 221.166H314.435L361.251 77.3518C356.2 69.9556 353.367 65.8104 348.316 58.4258H267.735H267.747Z" fill="#C2EF13"/>
<path d="M214.765 221.177H247.578L258.178 188.631H91.6412L81.0403 221.177H181.337L170.736 253.722H70.451L66.0156 267.342C71.0664 274.738 73.8995 278.884 78.9503 286.268H293.255L303.856 253.722H204.176L214.776 221.177H214.765Z" fill="#C2EF13"/>
</svg>
