<svg fill="none" height="56" viewBox="0 0 175 56" width="175" xmlns="http://www.w3.org/2000/svg">
    <path d="M23.0247 38.8533C20.2467 40.0046 13.4885 43.0898 5.33318 43.8982C1.92159 44.2378 -0.0246442 41.2917 6.09672 34.6976C2.6169 37.702 -3.84562 43.9888 3.08802 45.1336C6.1487 45.6381 10.8177 44.8717 14.9538 43.6363C20.0842 42.1066 24.3243 40.2115 26.7514 39.0311C25.7084 38.5881 24.6492 38.1256 24.6492 38.1256C24.3146 38.2808 23.3918 38.7013 23.0247 38.8533Z"
          fill="#788386"/>
    <path d="M56.2666 29.617C55.9806 27.557 55.5615 25.885 55.2138 24.6205C54.7979 23.107 54.4698 22.1853 54.395 21.9654C51.4481 25.2447 48.1015 28.8053 40.4303 33.847C40.6415 35.5255 40.7682 37.6631 40.7389 38.9923C42.0776 39.3739 44.3195 39.956 44.3195 39.956C44.3195 39.956 46.0513 30.9785 50.899 29.4294C54.6907 28.2167 56.1268 35.7422 56.1008 40.7904C56.9391 36.625 56.7929 33.4137 56.2666 29.617Z"
          fill="#788386"/>
    <path d="M56.5914 14.1425C55.8441 16.1378 54.5217 17.357 53.1051 18.6668C52.3773 17.1242 51.513 15.2291 50.3433 13.3534C49.5506 12.0792 48.7285 10.8082 47.1884 8.92282C45.7978 7.21851 44.1733 5.69855 42.6884 4.55372C40.8981 3.17281 39.1176 2.26084 37.857 1.82748C46.2527 8.50564 46.2527 14.427 44.0498 16.1572C42.8606 17.0854 40.6772 17.2083 38.9974 16.2025C37.4118 15.2517 35.8652 13.6638 34.5168 12.5707C32.4276 10.8794 29.8348 8.37305 25.4095 7.16354C30.2052 10.3264 33.6656 15.2194 35.3389 18.5213C36.0114 19.8439 37.1551 22.056 37.9837 24.2939C38.7375 26.3248 39.3158 28.3655 39.5627 29.4909C38.8187 30.0083 37.8765 30.6616 36.8042 31.3634C34.8418 32.6408 32.5446 34.0249 30.1793 35.3056C30.5821 35.477 31.9825 36.0397 32.3139 36.169C37.7692 33.1485 43.8873 29.2063 49.4206 23.9964C54.6225 19.0969 56.2795 15.5137 56.5914 14.1425Z"
          fill="#788386"/>
    <path d="M38.3508 49.5868L39.1793 50.059C40.5635 48.4323 41.9833 46.3076 42.5974 44.7229C42.2238 44.613 41.1028 44.2831 40.2775 44.0179C39.9689 45.2274 39.553 47.2972 38.3508 49.5868Z"
          fill="#788386"/>
    <path d="M42.5097 10.5948C42.5097 9.50817 41.6747 7.79092 39.6992 7.79092C37.571 7.79092 36.9375 10.0159 36.9375 10.847C36.9375 11.6814 37.7497 13.4989 39.5952 13.4989C41.8306 13.4989 42.5097 11.6814 42.5097 10.5948Z"
          fill="#788386"/>
    <path d="M60.0063 33.1388C60.0063 33.1388 61.6471 34.6232 63.4049 37.744C64.7468 40.1307 64.9092 41.5957 61.2929 42.3459C57.5239 43.1253 53.2123 42.2845 50.7105 41.9611C48.7123 41.7024 40.9242 39.6714 38.2729 38.8727C35.6053 38.0674 30.6309 36.2628 26.563 34.4292C24.6168 33.3102 22.9597 29.1287 22.1604 24.3877C21.3644 19.6467 21.3221 15.4005 22.1182 11.911C22.5243 10.1356 23.1157 8.19842 23.798 7.04712C25.7832 3.68702 28.363 0.559768 34.2374 0.818486C30.7284 0.00675875 27.9796 0.921975 26.524 1.61405C24.7012 2.48075 23.1774 3.87783 21.6276 6.38416C20.2402 8.62853 18.5474 11.9175 17.9138 20.0865C17.8131 21.3995 17.6084 22.7998 16.8546 23.5468C15.9806 24.4168 14.33 24.4427 14.33 24.4427C13.1311 24.4427 12.0849 24.1225 11.1588 23.272C9.23536 21.5062 9.30684 16.2219 9.73898 13.1917C10.2361 9.71838 11.8152 8.00761 12.296 7.38668C14.3105 4.95797 16.5784 4.74777 17.03 4.7316C8.32238 4.67662 5.04075 14.7375 5.65159 23.356C2.97106 21.5709 0.228782 19.1616 0.241778 16.749C-0.895418 19.071 2.24973 22.305 4.0465 23.6924C6.91223 25.9044 14.5607 30.9753 18.151 32.7572C21.7445 34.5391 29.341 38.1903 39.8617 41.7218C42.0549 42.4591 60.172 48.138 67.0049 44.6388C72.8208 41.6571 60.0063 33.1388 60.0063 33.1388Z"
          fill="#9E0B0F"/>
    <path d="M23.4958 37.8701C23.0702 37.689 21.3676 36.8773 19.7593 36.1108C18.5571 35.5384 15.4835 33.9473 12.5625 32.2721C9.43683 30.4805 6.23965 28.1326 6.23965 28.1326C7.09093 33.0774 8.83899 37.1231 9.88196 39.3836C10.6228 40.9941 11.3408 42.3815 11.3408 42.3815C13.3163 41.9126 14.148 41.6636 17.121 40.5705C20.0647 39.4839 22.1507 38.491 23.4958 37.8701Z"
          fill="#9E0B0F"/>
    <path d="M20.1395 43.9759C18.5376 44.5838 16.104 45.2856 13.7614 45.9098C17.956 51.6404 22.3748 54.1014 24.8442 54.8743C28.3727 55.9804 31.6609 55.7314 34.754 53.225C26.6117 57.2513 20.4709 51.676 20.1395 43.9759Z"
          fill="#9E0B0F"/>
    <path d="M41.1646 51.4884C38.2988 50.5311 35.9855 48.9238 33.7728 46.8864C31.4172 44.7197 29.9583 42.7728 28.376 40.4314C26.7189 41.227 24.9807 42.0064 23.041 42.8407C23.041 42.8407 25.9587 47.3166 32.4862 50.6896C39.0299 54.0723 46.9318 55.4823 51.2986 49.5448C47.7701 52.6591 43.5527 52.2839 41.1646 51.4884Z"
          fill="#9E0B0F"/>
    <path d="M11.0257 17.4185C11.0614 19.3007 12.3318 20.4196 13.7874 20.4293C15.243 20.4422 16.5719 19.3653 16.5621 17.619C16.5491 15.8694 15.451 14.5241 13.7874 14.4982C12.491 14.4723 10.9899 15.5363 11.0257 17.4185Z"
          fill="#9E0B0F"/>
    <path d="M172.728 26.4607C170.246 32.3853 165.805 36.8935 159.306 34.9595C152.805 33.0256 154.423 22.3406 158.049 18.531C161.317 15.09 167.809 10.1647 173.151 10.9764C174.086 11.1219 175.672 12.4414 174.691 12.865C173.706 13.2887 163.608 13.4827 159.868 24.0546C158.565 27.7348 160.274 30.736 163.611 30.6163C167.54 30.4773 172.862 26.1502 172.728 26.4607Z"
          fill="#788386"/>
    <path d="M152.438 26.7452C151.313 25.2091 149.91 21.6 153.23 20.6524C154.192 18.8414 152.577 17.0692 149.117 17.6319C147.34 17.923 148.695 11.4938 145.8 11.4485C144.026 12.0145 140.63 16.7878 137.095 21.1763C134.086 24.9213 130.555 28.6792 130.178 29.423C129.684 30.4643 129.297 33.8082 130.08 35.409C130.737 36.7511 132.888 36.5183 135.646 33.4008C137.157 31.6997 135.883 30.1927 137.657 27.7381C138.999 25.8785 139.818 25.2932 140.465 24.8534C142.164 23.6924 144.104 23.4531 144.484 24.0546C147.574 28.8214 146.449 36.0914 152.438 36.0914C157.207 36.0947 152.957 27.4632 152.438 26.7452ZM140.786 22.7351C139.597 22.9389 139.668 21.3962 140.601 20.038C141.81 18.2819 143.317 16.4224 143.873 16.1734C144.857 16.154 145.793 21.8846 140.786 22.7351Z"
          fill="#788386"/>
    <path d="M126.903 27.7834C126.994 24.7143 126.295 18.6539 121.285 20.3226C114.387 22.6317 111.771 30.791 113.435 33.5398C114.091 34.6297 117.981 37.6793 121.711 31.2728C123.238 35.5029 123.816 38.8274 126.107 38.7336C128.397 38.6431 129.096 33.7792 126.903 27.7834ZM118.111 31.2761C115.537 31.5154 114.449 28.1747 117.828 25.0022C121.243 21.7876 124.459 22.4958 124.329 24.9536C124.141 28.4948 120.664 31.0465 118.111 31.2761Z"
          fill="#9E0B0F"/>
    <path d="M105.247 19.9442C99.5645 22.7545 98.0958 28.967 100.386 31.1823C102.414 33.1453 106.557 30.8492 106.557 30.8492C103.051 38.7336 102.862 46.3334 107.96 46.3334C113.12 46.3334 111.141 37.9704 110.719 35.2926C109.685 28.6921 110.858 28.4916 112.496 25.0474C113.217 23.5339 111.937 16.6423 105.247 19.9442ZM104.357 29.1546C101.784 29.3874 100.698 26.0499 104.077 22.8742C107.492 19.6661 110.709 20.3711 110.579 22.8257C110.391 26.3701 106.914 28.9185 104.357 29.1546Z"
          fill="#9E0B0F"/>
    <path d="M94.6778 35.2441C97.3453 35.7163 98.6157 33.4072 98.515 32.4112C98.359 30.8783 97.8619 24.0578 99.1226 21.1764C95.0547 21.4545 89.294 34.2837 94.6778 35.2441Z"
          fill="#9E0B0F"/>
    <path d="M99.8211 12.6775C98.0146 11.8755 96.5005 17.3053 99.8211 18.573C101.793 19.3362 103.061 14.1069 99.8211 12.6775Z"
          fill="#9E0B0F"/>
    <path d="M86.0741 10.7888C83.7477 14.3365 77.4671 24.0061 76.4891 25.4711C75.5079 26.9361 70.7187 33.3878 76.4891 35.2926C78.5004 35.9524 85.6549 36.0947 91.4546 36.1399C91.4904 35.9297 93.5568 31.4216 85.3268 31.2728C82.656 31.2275 80.3686 28.4269 82.8964 21.7423C83.4618 20.2417 86.6849 14.191 87.3835 11.9207C87.5524 11.3774 87.9488 7.92353 86.0741 10.7888Z"
          fill="#9E0B0F"/>
</svg>
