<svg width="1080" height="1080" viewBox="0 0 1080 1080" fill="none" xmlns="http://www.w3.org/2000/svg">
<g clip-path="url(#clip0_138_5693)">
<rect width="1080" height="1080" fill="#C2EF13"/>
<path d="M109.148 -34.0332L44.0784 1350" stroke="#F8FFDD" stroke-opacity="0.2" stroke-width="1.72372"/>
<path d="M1032.21 0L965.775 1383.97" stroke="#F8FFDD" stroke-opacity="0.2" stroke-width="1.72372"/>
<path d="M396.347 695.76L444.682 540.039H518.016L469.681 695.76H396.347Z" fill="#171717"/>
<path d="M562.377 695.76L610.713 540.039H684.046L635.711 695.76H562.377Z" fill="#171717"/>
<path d="M596.039 239L562.205 348.003H592.771L578.559 393.789H389.189L365.069 471.498H283.726L193 763.787H274.482L365.16 471.649H805.4L829.568 393.789H634.499L648.711 348.003H676.278L710.113 239H596.039Z" fill="#171717"/>
<path d="M690.532 842L714.7 764.14H274.321L250.154 842L690.532 842Z" fill="#171717"/>
<path d="M796.274 764.03L887 471.741L805.518 471.741L714.793 764.03H796.274Z" fill="#171717"/>
</g>
<defs>
<clipPath id="clip0_138_5693">
<rect width="1080" height="1080" fill="white"/>
</clipPath>
</defs>
</svg>
