<svg width="818" height="669" viewBox="0 0 818 669" fill="none" xmlns="http://www.w3.org/2000/svg">
<path d="M139.79 401.271L145.251 345.326L177.969 340.588L180.331 398.669L139.79 401.271Z" fill="#262626"/>
<path d="M191.688 313.029L212.387 324.913L210.823 363.182L241.54 460.315L180.33 398.668L177.969 340.588L191.688 313.029Z" fill="#66685B"/>
<path d="M139.79 401.271L180.331 398.668L241.541 460.314L211.575 463.172L139.79 401.271Z" fill="#262626"/>
<path d="M191.689 313.029L173.472 315.992L145.251 345.326L177.969 340.588L191.689 313.029Z" fill="#3C3D33"/>
<path d="M148.801 386.123L128.538 508.151L214.403 552.393L241.691 521.464L254.297 477.81L148.801 386.123Z" fill="#66685B"/>
<path d="M84.5381 514.454L128.539 508.151L214.404 552.392L174.299 551.309L84.5381 514.454Z" fill="#262626"/>
<path d="M148.802 386.123L104.109 392.937L84.5381 514.454L128.539 508.151L148.802 386.123Z" fill="#3C3D33"/>
<path d="M119.903 397.66L139.098 397.54L130.283 441.45L107.101 442.037L107.177 452.342L122.31 454.132L113.66 505.849L85.4395 508.813L102.047 405.723L119.903 397.66Z" fill="#262626"/>
<path d="M39.1237 321.498L21.5986 357.571L119.423 433.929L129.938 383.445L39.1237 321.498Z" fill="#66685B"/>
<path d="M39.1228 321.498L22.3348 323.725L0.37207 362.686L21.5977 357.571L39.1228 321.498Z" fill="#3C3D33"/>
<path d="M119.422 433.929L21.5977 357.571L0.37207 362.686L99.43 441.045L119.422 433.929Z" fill="#262626"/>
<path d="M32.9555 381.414L28.8789 436.155L108.742 492.506L113.631 444.64L32.9555 381.414Z" fill="#66685B"/>
<path d="M32.9562 381.414L13.3853 384.603L11.5049 442.458L28.8795 436.155L32.9562 381.414Z" fill="#3C3D33"/>
<path d="M108.743 492.507L28.8795 436.156L11.5049 442.459L88.0285 497.847L108.743 492.507Z" fill="#262626"/>
<path d="M227.881 417.126L219.772 438.382L241.54 460.315L227.881 417.126Z" fill="#3C3D33"/>
<path d="M217.006 445.407L192.712 513.161L200.609 545.292L214.404 552.393L241.692 521.464L254.298 477.81L217.006 445.407Z" fill="#3C3D33"/>
<path d="M691.809 132.935L738.683 187.074L728.002 213.821L659.963 199.379L691.809 132.935Z" fill="#66685B"/>
<path d="M304.663 154.687L380.194 156.778L406.278 106.685L691.809 132.935L664.19 194.731L756.298 204.991L666.281 426.859L578.776 413.637L555.219 472.048L299.924 444.836L316.201 390.23L221.415 379.038L304.663 154.687Z" fill="#262626"/>
<path d="M276.035 353.841L333.996 184.908L401.509 190.023L423.2 137.884L651.086 155.8L627.213 209.142L714.793 222.14L642.331 396.939L562.935 387.597L540.987 441.827L336.824 417.803L353.852 365.018L276.035 353.841Z" fill="#F8FFDD"/>
<path d="M572.382 307.253L569.99 312.804L588.463 322.431L590.073 315.165L572.382 307.253Z" fill="#949976"/>
<path d="M736.125 2.61748L725.911 21.1655L736.561 28.6869L723.564 29.6798L670.267 145.255L678.931 156.296L671.425 176.108L647.777 169.579L649.011 150.385L660.428 144.051L706.325 53.4176L695.358 48.8596L707.934 45.7156L717.08 27.3782L708.671 18.9541L718.825 19.2099L726.678 0L736.125 2.61748Z" fill="#262626"/>
<path d="M588.885 214.738L594.752 204.028H582.793L578.656 213.535L588.885 214.738Z" fill="#949976"/>
<path d="M631.05 210.406L653.735 247.051L701.015 255.384L714.794 222.14L631.05 210.406Z" fill="#3C3D33"/>
<path d="M345.339 176.439L389.264 73.5752L398.606 76.1776L356.576 182.396L345.339 176.439Z" fill="#262626"/>
<path d="M333.996 184.908L352.364 218.018L387.7 222.064L397.432 189.541L333.996 184.908Z" fill="#3C3D33"/>
<path d="M333.996 184.908L352.363 218.018L310.032 358.91L276.035 353.841L333.996 184.908Z" fill="#66685B"/>
<path d="M631.049 210.406L653.734 247.051L605.1 392.561L570.186 388.5L631.049 210.406Z" fill="#66685B"/>
<path d="M736.771 206.104L781.946 92.9807L791.332 95.4327L748.114 211.865L736.771 206.104Z" fill="#262626"/>
<path d="M408.881 172.302L348.348 382.106L341.383 377.067L404.247 166.706L408.881 172.302Z" fill="#262626"/>
<path d="M633.005 196.22L556.211 404.189L564.5 405.167L635.788 196.536L633.005 196.22Z" fill="#262626"/>
<path d="M393.838 189.12L643.054 211.489L643.611 206.751L392.288 183.058L393.838 189.12Z" fill="#262626"/>
<path d="M339.818 363.002L578.415 389.417L577.783 394.697L339.382 366.657L339.818 363.002Z" fill="#262626"/>
<path d="M622.31 231.872L659.255 208.601L663.452 209.097L620.7 240.703L622.31 231.872Z" fill="#262626"/>
<path d="M612.848 259.326L684.302 214.558L689.311 215.145L610.787 264.877L612.848 259.326Z" fill="#262626"/>
<path d="M603.883 289.923L707.002 218.649L711.305 220.59L599.596 297.535L603.883 289.923Z" fill="#262626"/>
<path d="M594.376 314.263L710.462 239.695L708.206 246.855L593.909 318.174L594.376 314.263Z" fill="#262626"/>
<path d="M587.155 333.502L696.322 273.376L692.681 280.311L586.764 336.842L587.155 333.502Z" fill="#262626"/>
<path d="M580.371 352.773L684.408 302.529L680.843 308.802L578.49 359.061L580.371 352.773Z" fill="#262626"/>
<path d="M570.908 380.226L674.253 328.764L671.756 335.533L570.352 384.965L570.908 380.226Z" fill="#262626"/>
<path d="M583.032 392.637L660.789 361.392L656.036 368.192L588.327 393.268L583.032 392.637Z" fill="#262626"/>
<path d="M617.616 396.713L651.117 385.988L648.635 390.215L623.438 398.85L617.616 396.713Z" fill="#262626"/>
<path d="M683.068 211.399L704.189 259.416L706.159 255.505L686.603 211.82L683.068 211.399Z" fill="#262626"/>
<path d="M664.22 211.354L658.534 211.534L693.87 281.394L695.751 278.22L664.22 211.354Z" fill="#262626"/>
<path d="M635.292 208.796L638.451 209.172L685.099 304.68L683.625 309.118L635.292 208.796Z" fill="#262626"/>
<path d="M624.071 225.66L674.54 326.252L671.772 329.998L622.115 228.638L624.071 225.66Z" fill="#262626"/>
<path d="M615.646 250.887L665.242 346.079L663.858 348.937L614.187 253.625L615.646 250.887Z" fill="#262626"/>
<path d="M608.125 273.15L658.654 361.137L656.322 363.198L606.876 275.678L608.125 273.15Z" fill="#262626"/>
<path d="M602.875 287.275L650.547 380.391L648.787 384.107L601.296 291.051L602.875 287.275Z" fill="#262626"/>
<path d="M595.023 308.787L643.777 396.337L642.062 399.586L639.069 398.233L594.707 311.39L595.023 308.787Z" fill="#262626"/>
<path d="M588.779 326.899L626.461 399.21L623.438 398.849L587.425 331.171L588.779 326.899Z" fill="#262626"/>
<path d="M582.551 346.154L610.636 395.886L606.74 395.435L580.821 349.749L582.551 346.154Z" fill="#262626"/>
<path d="M575.843 364.777L589.096 394.803L584.944 394.321L575.843 364.777Z" fill="#262626"/>
<path d="M308.303 200.162L341.789 172.107L346.001 172.031L307.912 209.127L308.303 200.162Z" fill="#262626"/>
<path d="M302.646 228.623L367.391 174.634L372.446 174.544L301.353 234.415L302.646 228.623Z" fill="#262626"/>
<path d="M297.894 260.153L390.439 175.627L394.967 176.966L294.66 268.291L297.894 260.153Z" fill="#262626"/>
<path d="M291.756 285.576L396.711 196.01L395.447 203.411L291.816 289.502L291.756 285.576Z" fill="#262626"/>
<path d="M287.198 305.598L387.249 231.301L384.571 238.642L287.258 308.968L287.198 305.598Z" fill="#262626"/>
<path d="M283.076 325.62L379.381 261.778L376.689 268.472L282.068 332.104L283.076 325.62Z" fill="#262626"/>
<path d="M277.421 354.096L372.853 289.141L371.304 296.196L277.496 358.865L277.421 354.096Z" fill="#262626"/>
<path d="M291.095 364.762L363.933 323.303L360.127 330.675L296.435 364.657L291.095 364.762Z" fill="#262626"/>
<path d="M325.918 364.115L357.659 348.967L355.778 353.495L331.98 365.454L325.918 364.115Z" fill="#262626"/>
<path d="M365.753 171.67L393.161 216.393L394.575 212.241L369.303 171.61L365.753 171.67Z" fill="#262626"/>
<path d="M347.069 174.167L341.458 175.115L385.895 239.559L387.339 236.16L347.069 174.167Z" fill="#262626"/>
<path d="M318.066 175.536L321.24 175.476L380.359 263.824L379.502 268.427L318.066 175.536Z" fill="#262626"/>
<path d="M309.22 193.769L372.807 286.614L370.565 290.705L307.686 196.988L309.22 193.769Z" fill="#262626"/>
<path d="M304.272 219.898L366.264 307.523L365.286 310.532L303.204 222.816L304.272 219.898Z" fill="#262626"/>
<path d="M299.819 242.974L361.781 323.334L359.735 325.68L298.932 245.652L299.819 242.974Z" fill="#262626"/>
<path d="M296.525 257.671L356.336 343.506L355.103 347.433L295.487 261.627L296.525 257.671Z" fill="#262626"/>
<path d="M291.651 280.055L351.778 360.219L350.53 363.664L347.371 362.731L291.696 282.672L291.651 280.055Z" fill="#262626"/>
<path d="M287.921 298.844L335.02 365.394L331.981 365.454L287.153 303.251L287.921 298.844Z" fill="#262626"/>
<path d="M284.354 318.76L318.893 364.25L314.966 364.325L283.105 322.551L284.354 318.76Z" fill="#262626"/>
<path d="M280.218 338.121L297.382 366.086L293.23 366.161L280.218 338.121Z" fill="#262626"/>
<path d="M395.236 174.664L401.87 186.894L635.292 208.796L659.556 151.979L414.1 127.91L395.236 174.664Z" fill="#262626"/>
<path d="M536.761 362.911L547.742 384.949L563.793 380.241L572.337 368.161L551.443 351.825L536.761 362.911Z" fill="#949976"/>
<path d="M522.304 362.28L531.254 386.544L518.227 385.01L515.896 361.528L522.304 362.28Z" fill="#949976"/>
<path d="M402.864 351.238L506.42 360.414L506.691 386.875L398.021 375.533L402.864 351.238Z" fill="#949976"/>
<path d="M342.692 367.59L349.837 366.657L562.936 387.597L543.606 450.537L328.16 423.685L342.692 367.59Z" fill="#262626"/>
<path d="M405.796 198.477L412.355 193.588L421.2 192.339L435.115 190.008L402.186 184.216L393.987 219.251L405.796 198.477Z" fill="#262626"/>
<path d="M577.046 204.795L612.006 210.436L619.031 212.437L620.791 217.461L619.437 228.984L614.894 245.246L617.812 242.824L631.426 203.983L577.046 204.795Z" fill="#262626"/>
<path d="M363.932 323.303L360.939 348.756L363.255 357.767L370.22 361.001L386.828 365.634L430.663 376.164L349.837 366.657L363.932 323.303Z" fill="#262626"/>
<path d="M493.768 382.136L544.071 382.422L558.663 379.354L564.635 372.72L587.425 331.171L564.003 396.864L493.768 382.136Z" fill="#262626"/>
<path d="M402.096 218.755L408.384 204.765L418.839 196.837L590.946 212.888L600.528 216.468L604.424 224.23L602.724 236.34L557.219 352.652L546.93 362.851L530.428 366.326L395.507 352.442L374.568 343.175L372.101 328.147L402.096 218.755Z" fill="#C2EF13"/>
<path d="M756.298 204.99L817.388 252.286L734.682 479.344L666.281 426.859L756.298 204.99Z" fill="#66685B"/>
<path d="M555.219 472.048L613.465 522.954L636.105 461.428L578.776 413.636L555.219 472.048Z" fill="#66685B"/>
<path d="M299.925 444.835L360.804 499.261L613.465 522.954L555.219 472.048L299.925 444.835Z" fill="#262626"/>
<path d="M578.775 413.636L666.28 426.859L734.681 479.344L636.104 461.428L578.775 413.636Z" fill="#262626"/>
<path d="M221.415 379.038L316.201 390.23L306.543 422.647L221.415 379.038Z" fill="#262626"/>
<path d="M416.027 117.486L390.062 170.978L465.458 176.499L488.729 124.526L416.027 117.486Z" fill="#F8FFDD"/>
<path d="M483.357 397.992L564.499 405.167L540.445 456.479L460.312 447.047L483.357 397.992Z" fill="#F8FFDD"/>
<path d="M483.357 397.992L493 406.973L474.903 448.777L460.312 447.047L483.357 397.992Z" fill="#66685B"/>
<path d="M564.5 405.167L560.454 413.772L493.001 406.973L483.358 397.992L564.5 405.167Z" fill="#262626"/>
<path d="M488.729 124.526L416.026 117.486L421.141 125.338L484.998 132.86L488.729 124.526Z" fill="#262626"/>
<path d="M390.062 170.978L416.027 117.486L421.141 125.338L400.608 171.761L390.062 170.978Z" fill="#66685B"/>
<path d="M347.461 390.892L330.206 400.293L325.317 416.69L337.201 430.71L362.654 428.995L374.267 408.492L369.905 396.954L347.461 390.892Z" fill="#C2EF13"/>
<path d="M337.202 430.711L340.752 437.931L363.798 435.75L362.655 428.996L337.202 430.711Z" fill="#66685B"/>
<path d="M374.267 408.492L362.654 428.995L363.798 435.75L376.073 414.238L374.267 408.492Z" fill="#66685B"/>
<path d="M340.51 430.485L343.548 430.289L346.091 437.419L344 437.615L340.51 430.485Z" fill="#262626"/>
<path d="M348.272 429.958L351.386 429.748L353.086 436.758L350.785 436.983L348.272 429.958Z" fill="#262626"/>
<path d="M356.802 429.386L360.593 429.131L361.134 435.99L358.547 436.246L356.802 429.386Z" fill="#262626"/>
<path d="M364.354 425.972L365.814 423.415L367.333 429.552L366.22 431.508L364.354 425.972Z" fill="#262626"/>
<path d="M367.739 420L369.349 417.172L370.989 423.144L369.59 425.611L367.739 420Z" fill="#262626"/>
<path d="M371.228 413.847L372.973 410.778L374.552 416.886L373.258 419.157L371.228 413.847Z" fill="#262626"/>
<path d="M378.961 432.997L383.203 438.593L390.785 437.013L394.305 430.786L388.453 426.077L382.662 427.145L378.961 432.997Z" fill="#F8FFDD"/>
<path d="M415.665 434.471L411.498 428.83L403.901 430.304L400.291 436.487L406.083 441.271L411.889 440.278L415.665 434.471Z" fill="#F8FFDD"/>
<path d="M378.961 432.997L383.203 428.018L388.333 427.07L394.305 430.786L388.453 426.077L382.662 427.145L378.961 432.997Z" fill="#66685B"/>
<path d="M432.557 143.69L420.357 171.324L407.465 170.106L411.301 162.509L417.483 163.096L425.938 143.209L432.557 143.69Z" fill="#C1C4A7"/>
<path d="M435.369 137.086L432.556 143.69L443.281 144.473L445.583 138.109L435.369 137.086Z" fill="#C1C4A7"/>
<path d="M441.282 150.279C441.312 150.084 443.283 144.473 443.283 144.473L447.54 144.894L445.75 150.189L441.282 150.264V150.279Z" fill="#C1C4A7"/>
<path d="M463.441 139.96L458.643 151.648L462.84 152.069L467.428 140.862L463.441 139.96Z" fill="#C1C4A7"/>
<path d="M460.448 158.417L462.84 152.069L468.331 152.987L465.819 159.832L460.448 158.417Z" fill="#C1C4A7"/>
<path d="M463.652 168.617L465.818 159.831L471.203 160.734L465.427 175.611L441.103 173.039L443.178 168.03L463.652 168.617Z" fill="#C1C4A7"/>
<path d="M497.709 415.652L494.7 422.136L500.763 422.557L503.786 416.028L497.709 415.652Z" fill="#C1C4A7"/>
<path d="M491.465 429.116L488.502 435.509L495.888 436.186L498.235 429.672L491.465 429.116Z" fill="#C1C4A7"/>
<path d="M490.984 449.935L495.903 436.186L502.432 436.788L497.378 451.379L490.999 449.935H490.984Z" fill="#C1C4A7"/>
<path d="M522.8 423.866L552.495 425.942L550.66 431.462L519.701 429.025L522.8 423.866Z" fill="#C1C4A7"/>
<path d="M516.557 435.885L514.315 441.662L525.176 442.73L527.854 436.893L516.557 435.885Z" fill="#C1C4A7"/>
<path d="M544.852 444.249L525.176 442.73L522.589 448.386L541.603 450.417L544.852 444.249Z" fill="#C1C4A7"/>
<path d="M455.694 228.307L439.402 275.933L467.021 278.596L481.041 230.488L455.694 228.307Z" fill="#262626"/>
<path d="M511.157 233.798L495.362 281.499L519.341 284.372L535.452 235.994L511.157 233.798Z" fill="#262626"/>
<path d="M407.933 278.837L423.352 296.648L520.619 305.974L547.607 290.66L513.579 331.698L415.559 315.12L407.933 278.837Z" fill="#262626"/>
<path d="M681.879 438.833L776.95 363.302L734.68 479.344L681.879 438.833Z" fill="#262626"/>
<path d="M583.499 496.764L631.937 458.75L636.104 461.428L613.45 522.953L583.499 496.764Z" fill="#262626"/>
<path d="M765.516 446.625L775.625 468.663L774.933 494.492L744.786 526.835L723.922 501.111L756.46 475.418L765.516 446.625Z" fill="#3C3D33"/>
<path d="M670.159 498.328L687.489 526.775L744.787 526.835L723.923 501.111L670.159 498.328Z" fill="#262626"/>
<path d="M670.159 498.328L733.189 468.287L750.037 449.228L765.517 446.625L756.461 475.418L723.923 501.111L670.159 498.328Z" fill="#66685B"/>
<path d="M570.213 587.488L599.652 536.492L664.743 503.082L733.098 505.714L579.299 634.948L570.213 587.488Z" fill="#66685B"/>
<path d="M579.299 634.949L612.408 668.374L760.506 545.668L733.098 505.714L579.299 634.949Z" fill="#3C3D33"/>
<path d="M590.897 646.652L589.543 630.842L680.342 601.448L662.336 582.283L664.021 569.511L721.936 530.686L742.364 560.711L612.408 668.374L590.897 646.652Z" fill="#262626"/>
<path d="M614.004 657.272L606.663 597.912L652.379 561.523L680.344 601.447L614.004 657.272Z" fill="#3C3D33"/>
<path d="M599.652 536.492L632.701 528.82L733.098 505.714L579.299 634.949L570.213 587.488L599.652 536.492Z" fill="#3C3D33"/>
<path d="M652.378 561.524L632.672 539.471L590.01 580.373L606.662 597.913L652.378 561.524Z" fill="#66685B"/>
<path d="M590.009 580.372L589.543 630.841L614.003 657.272L606.662 597.912L590.009 580.372Z" fill="#262626"/>
<path d="M646.421 530.294L666.894 549.82L717.138 502.254L695.265 494.101L646.421 530.294Z" fill="#66685B"/>
<path d="M717.137 502.254L741.131 542.178L685.697 590.496L666.894 549.82L717.137 502.254Z" fill="#3C3D33"/>
<path d="M664.021 569.512L646.421 530.295L666.894 549.82L685.698 590.497L664.021 569.512Z" fill="#262626"/>
<path d="M774.932 494.492L756.459 475.418L765.515 446.625L775.624 468.663L774.932 494.492Z" fill="#66685B"/>
</svg>
