<svg width="312" height="82" viewBox="0 0 312 82" fill="none" xmlns="http://www.w3.org/2000/svg">
<path fill-rule="evenodd" clip-rule="evenodd" d="M31.0789 56.2158L40.4333 26.0962H53.0481L43.6936 56.2158H31.0789Z" fill="#171717"/>
<path fill-rule="evenodd" clip-rule="evenodd" d="M195.179 56.2144L210.146 8.02588H222.76L207.794 56.2144H195.179Z" fill="#171717"/>
<path fill-rule="evenodd" clip-rule="evenodd" d="M50.2605 35.1379L53.0686 26.0962H65.6834L62.8753 35.1379H50.2605Z" fill="#171717"/>
<path fill-rule="evenodd" clip-rule="evenodd" d="M187.511 20.073L191.253 8.02588H210.175L206.434 20.073H187.511Z" fill="#171717"/>
<path fill-rule="evenodd" clip-rule="evenodd" d="M219.014 20.073L222.755 8.02588H241.677L237.936 20.073H219.014Z" fill="#171717"/>
<path fill-rule="evenodd" clip-rule="evenodd" d="M121.383 8.0293L106.417 56.2178H119.031L119.032 56.2174H131.633L140.987 26.0996H128.385L133.998 8.0293H121.383ZM140.989 26.0996L131.635 56.2173H144.25L153.604 26.0996H140.989ZM125.548 35.1376L121.806 47.1848H134.421L138.163 35.1376H125.548Z" fill="#171717"/>
<path fill-rule="evenodd" clip-rule="evenodd" d="M71.3746 26.1189L62.0209 56.2362H74.6231L74.623 56.2367H87.225H87.2377H99.8397L109.194 26.1189H96.5916H96.5788H83.9894H83.9768H71.3746ZM81.1668 35.1362L77.4252 47.1834H90.04L93.7816 35.1362H81.1668Z" fill="#171717"/>
<path fill-rule="evenodd" clip-rule="evenodd" d="M160.169 26.1208L150.815 56.2387H163.415H163.43H176.03L185.384 26.1208H172.783H172.769H160.169ZM185.386 26.1208L176.032 56.2381H188.647L198 26.1208H185.386ZM169.941 35.1363L166.2 47.1834H178.814L182.556 35.1363H169.941Z" fill="#171717"/>
<path fill-rule="evenodd" clip-rule="evenodd" d="M246.56 56.2387L255.913 26.1208H268.514H268.528H281.129L271.775 56.2387H259.174H259.16H246.56ZM265.694 35.1363L261.953 47.1834H274.568L278.309 35.1363H265.694Z" fill="#171717"/>
<path fill-rule="evenodd" clip-rule="evenodd" d="M224.109 26.1003L214.756 56.2182H227.356H227.37H239.971L242.777 47.1819H230.174L231.108 44.1743H238.36L240.231 38.1507H232.979L233.916 35.1348H246.519L249.325 26.1003H236.724H236.71H224.109Z" fill="#171717"/>
<path fill-rule="evenodd" clip-rule="evenodd" d="M41.0013 68.993L37.0144 81.8301L9.74639 81.8301L13.7333 68.993L41.0013 68.993Z" fill="#171717"/>
<path fill-rule="evenodd" clip-rule="evenodd" d="M62.363 0.429746L58.3761 13.2668L31.1081 13.2668L35.095 0.429743L62.363 0.429746Z" fill="#171717"/>
<path fill-rule="evenodd" clip-rule="evenodd" d="M301.907 0.429746L297.92 13.2668L270.652 13.2668L274.639 0.429743L301.907 0.429746Z" fill="#171717"/>
<path fill-rule="evenodd" clip-rule="evenodd" d="M280.565 68.993L276.578 81.8301L249.31 81.8301L253.297 68.993L280.565 68.993Z" fill="#171717"/>
<path fill-rule="evenodd" clip-rule="evenodd" d="M0.343872 69.0165L17.6584 13.2668H31.1004L13.7858 69.0165H0.343872Z" fill="#171717"/>
<path fill-rule="evenodd" clip-rule="evenodd" d="M311.373 13.065L294.001 68.998L280.559 68.998L297.931 13.065L311.373 13.065Z" fill="#171717"/>
</svg>
