<svg width="312" height="82" viewBox="0 0 312 82" fill="none" xmlns="http://www.w3.org/2000/svg">
<path fill-rule="evenodd" clip-rule="evenodd" d="M30.8167 56.0298L40.1881 25.8555H52.8258L43.4544 56.0298H30.8167Z" fill="#F8FFDD"/>
<path fill-rule="evenodd" clip-rule="evenodd" d="M195.228 56.0267L210.222 7.75073H222.859L207.866 56.0267H195.228Z" fill="#F8FFDD"/>
<path fill-rule="evenodd" clip-rule="evenodd" d="M50.0302 34.9136L52.8434 25.8555H65.4811L62.6678 34.9136H50.0302Z" fill="#F8FFDD"/>
<path fill-rule="evenodd" clip-rule="evenodd" d="M187.526 19.8197L191.274 7.75073H210.231L206.482 19.8197H187.526Z" fill="#F8FFDD"/>
<path fill-rule="evenodd" clip-rule="evenodd" d="M219.091 19.8197L222.84 7.75073H241.796L238.048 19.8197H219.091Z" fill="#F8FFDD"/>
<path fill-rule="evenodd" clip-rule="evenodd" d="M121.294 7.75171L106.3 56.0277H118.938L118.939 56.0239H131.555L140.926 25.8515H128.31L133.932 7.75171H121.294ZM140.927 25.8515L131.556 56.0239H144.194L153.565 25.8515H140.927ZM125.469 34.9094L121.72 46.9784H134.358L138.106 34.9094H125.469Z" fill="#F8FFDD"/>
<path fill-rule="evenodd" clip-rule="evenodd" d="M71.1847 25.8542L61.814 56.0262H74.4383L74.4382 56.0267H87.0549H87.0758H99.6926L109.063 25.8542H96.4467H96.4258H83.8224H83.809H71.1847ZM80.9812 34.9002L77.2329 46.9692H89.8706L93.6189 34.9002H80.9812Z" fill="#F8FFDD"/>
<path fill-rule="evenodd" clip-rule="evenodd" d="M160.144 25.853L150.774 56.0255H163.406H163.411H176.044L176.044 56.025H188.668L198.038 25.853H185.415H185.401H172.782H172.777H160.144ZM169.949 34.9071L166.201 46.9761H178.838L182.587 34.9071H169.949Z" fill="#F8FFDD"/>
<path fill-rule="evenodd" clip-rule="evenodd" d="M246.663 56.0255L256.034 25.853H268.666H268.671H281.304L271.933 56.0255H259.3H259.296H246.663ZM265.841 34.9071L262.092 46.9761H274.73L278.478 34.9071H265.841Z" fill="#F8FFDD"/>
<path fill-rule="evenodd" clip-rule="evenodd" d="M224.192 25.8462L214.821 56.0187H227.447H227.458H240.084L242.895 46.9688H230.272L231.208 43.9548H238.459L240.333 37.9203H233.083L234.021 34.8998H246.643L249.455 25.8462H236.829H236.817H224.192Z" fill="#F8FFDD"/>
<path fill-rule="evenodd" clip-rule="evenodd" d="M40.7734 68.8374L36.7792 81.6978L9.46174 81.6978L13.4559 68.8373L40.7734 68.8374Z" fill="#F8FFDD"/>
<path fill-rule="evenodd" clip-rule="evenodd" d="M62.1628 0.140574L58.1687 13.001L30.8512 13.001L34.8453 0.140571L62.1628 0.140574Z" fill="#F8FFDD"/>
<path fill-rule="evenodd" clip-rule="evenodd" d="M302.139 0.140574L298.145 13.001L270.827 13.001L274.821 0.140571L302.139 0.140574Z" fill="#F8FFDD"/>
<path fill-rule="evenodd" clip-rule="evenodd" d="M280.77 68.8374L276.776 81.6978L249.459 81.6978L253.453 68.8373L280.77 68.8374Z" fill="#F8FFDD"/>
<path fill-rule="evenodd" clip-rule="evenodd" d="M0.0313721 68.8519L17.3773 13.001H30.8437L13.4977 68.8519H0.0313721Z" fill="#F8FFDD"/>
<path fill-rule="evenodd" clip-rule="evenodd" d="M311.667 12.8025L294.264 68.8372L280.798 68.8372L298.201 12.8025L311.667 12.8025Z" fill="#F8FFDD"/>
</svg>
