<svg width="1168" height="487" viewBox="0 0 1168 487" fill="none" xmlns="http://www.w3.org/2000/svg">
<path opacity="0.39" d="M1157.96 344.191L791.401 486.658L625.961 430.359L898.26 330.133L732.627 317.796L635.403 343.962L375.932 275.747L271.46 296.07L225.374 274.8L205.93 278.345L242.871 303.142L136.152 331.871L57.7411 319.498L0.0380859 280.609L10.8135 256.794L50.8967 240.139L206.649 191L453.747 153.936L712.375 267.903L1021.16 302.896L1157.96 344.191Z" fill="#262626"/>
<path d="M589.932 35.3008V94.7412L617.081 156.902L654.496 180.243L698.335 151.707L700.547 81.2982L667.834 20.7873L625.382 3.44836L589.932 35.3008Z" fill="#262626"/>
<path d="M625.382 3.44835L684.015 0.815918L691.105 3.13246L690.824 5.46655L696.458 4.88742L711.217 9.67845L710.936 12.0125L717.815 11.8546L730.188 15.9085L667.834 20.7873L625.382 3.44835Z" fill="#66685B"/>
<path d="M667.833 20.7873L730.187 15.9085L731.52 18.7515L729.063 22.63H733.346L739.26 35.2481L736.522 39.0213L740.699 38.3544L747.315 52.2887L744.577 56.0444L748.737 55.4828L754.703 68.294L751.966 72.0671L756.406 71.839L757.073 73.278L700.545 81.2982L667.833 20.7873Z" fill="#3C3D33"/>
<path d="M700.545 81.2983L698.334 151.707L757.072 137.79L756.669 128.577L751.386 127.524L751.369 126.067L756.809 125.716L757.072 109.922L751.79 108.886L751.825 107.43L757.072 107.061V92.7055L752.79 91.8456L752.878 89.6694H757.072V73.2781L700.545 81.2983Z" fill="#3C3D33"/>
<path d="M654.496 180.243L712.462 167.782L757.073 137.79L698.335 151.707L654.496 180.243Z" fill="#262626"/>
<path d="M611.131 48.6035L608.955 90.9681L628.347 140.914L654.496 152.778L677.784 139.458L681.891 89.2833L655.97 42.0399L631.243 31.6155L611.131 48.6035Z" fill="#3C3D33"/>
<path d="M642.826 36.4941L629.365 50.3407L627.733 86.1418L639.913 127.032L671.888 142.827L677.785 139.457L681.891 89.2832L655.971 42.0397L642.826 36.4941Z" fill="#262626"/>
<path d="M617.432 63.0995V88.599L629.085 115.257L645.142 125.278L663.938 113.046L664.886 82.8427L650.846 56.8869L632.647 49.4459L617.432 63.0995Z" fill="#262626"/>
<path d="M632.646 49.4458L657.795 48.3051L677.608 54.7809L650.845 56.8869L632.646 49.4458Z" fill="#3C3D33"/>
<path d="M650.846 56.8868L677.609 54.7808L689.139 79.3853L664.885 82.8426L650.846 56.8868Z" fill="#3C3D33"/>
<path d="M664.885 82.8426L663.938 113.045L689.139 107.061V79.3854L664.885 82.8426Z" fill="#3C3D33"/>
<path d="M645.143 125.277L669.993 119.925L689.139 107.061L663.938 113.045L645.143 125.277Z" fill="#262626"/>
<path d="M672.433 29.2989L704.092 25.6661L721.08 38.021L739.262 35.2482L736.524 39.0214L719.817 40.7412L703.004 28.6671L670.924 32.2121L672.433 29.2989Z" fill="#262626"/>
<path d="M680.488 46.3394L706.022 43.5842L729.135 55.044L747.317 52.2887L744.579 56.0444L727.872 57.7818L704.934 46.5851L678.979 49.2351L680.488 46.3394Z" fill="#262626"/>
<path d="M687.876 62.3447L713.411 59.6069L736.524 71.0668L754.705 68.294L751.967 72.0671L735.26 73.787L712.323 62.6079L686.367 65.2403L687.876 62.3447Z" fill="#262626"/>
<path d="M699.282 78.9466L720.535 76.2791L736.838 89.6694L730.889 89.2482L719.71 78.7009L700.546 81.2982L699.282 78.9466Z" fill="#262626"/>
<path d="M757.074 92.7054L742.613 93.5653L736.839 93.1441L752.791 91.8455L757.074 92.7054Z" fill="#262626"/>
<path d="M700.038 102.902L721.905 100.111L726.994 101.498L699.968 105.569L700.038 102.902Z" fill="#262626"/>
<path d="M736.085 110.641L751.792 108.886L757.074 109.921L740.069 111.975L736.085 110.641Z" fill="#262626"/>
<path d="M698.827 121.539L720.676 118.749L725.766 120.153L698.739 124.207L698.827 121.539Z" fill="#262626"/>
<path d="M735.663 129.296L751.387 127.524L756.67 128.577L739.664 130.63L735.663 129.296Z" fill="#262626"/>
<path d="M697.861 140.194L719.71 137.404L724.8 138.79L697.773 142.862L697.861 140.194Z" fill="#262626"/>
<path d="M660.568 17.8214L689.753 14.645L714.884 17.1019L718.061 19.6115L731.521 18.7516L729.064 22.63H716.341L708.83 17.6635L689.753 16.5754L663.78 19.1376L660.568 17.8214Z" fill="#262626"/>
<path d="M647.319 12.5391L673.468 9.45038L694.756 11.1878L711.217 9.67852L710.937 12.0126L695.002 12.8725L673.416 10.9596L649.373 13.3815L647.319 12.5391Z" fill="#262626"/>
<path d="M631.963 7.83567L658.129 4.7294L679.715 5.01019L691.105 3.13239L690.824 5.46648L679.961 6.7125L658.059 6.23866L634.034 8.67805L631.963 7.83567Z" fill="#262626"/>
<path d="M731.855 271.219L766.99 321.271L804.107 340.54L847.156 327.29L865.952 298.474L877.745 261.62L796.947 294.087L731.855 271.219Z" fill="#262626"/>
<path d="M552.006 43.5842L562.167 47.1292L540.125 53.8331L524.506 50.0073L552.006 43.5842Z" fill="#C2EF13"/>
<path d="M630.208 95.9345L662.517 103.095V66.4337L629.77 69.7857L630.208 95.9345Z" fill="#999B8C"/>
<path d="M662.517 66.4337L607.499 49.0596L580.911 50.9725L629.769 69.7857L662.517 66.4337Z" fill="#F8FFDD"/>
<path d="M651.882 116.854V104.165L630.208 95.9345L629.77 69.7856L580.912 50.9725L580.684 82.4564L651.882 116.854Z" fill="#66685B"/>
<path d="M662.517 92.8809L683.471 100.761L651.882 104.165L630.208 95.9345L662.517 92.8809Z" fill="#F8FFDD"/>
<path d="M651.883 104.165L683.472 100.761V112.519L651.883 116.854V104.165Z" fill="#999B8C"/>
<path d="M646.967 93.0387L644.598 95.0218L649.161 96.8119L657.935 97.2331L666.693 95.8291L668.026 94.2146L663.621 92.5825L656.251 92.0911L646.967 93.0387Z" fill="#66685B"/>
<path d="M644.598 95.022V98.5319L649.161 100.304V96.812L644.598 95.022Z" fill="#3C3D33"/>
<path d="M657.935 97.233L649.16 96.8118V100.304L657.935 100.76V97.233Z" fill="#66685B"/>
<path d="M666.692 95.8291L657.935 97.2331V100.761L666.692 99.5321V95.8291Z" fill="#999B8C"/>
<path d="M668.026 94.2145V96.8118L666.692 99.532V95.829L668.026 94.2145Z" fill="#999B8C"/>
<path d="M651.882 93.5126L654.62 93.2142L663.412 95.5132L659.551 95.9344L651.882 93.5126Z" fill="#999B8C"/>
<path d="M647.371 95.4255L663.411 93.2318L665.465 94.0215L649.898 95.9344L647.371 95.4255Z" fill="#999B8C"/>
<path d="M654.618 93.2142V94.2146L657.637 95.0218L657.672 94.004L654.618 93.2142Z" fill="#3C3D33"/>
<path d="M660.2 94.6708L660.147 95.6185L660.779 95.7939L663.412 95.5132L660.2 94.6708Z" fill="#3C3D33"/>
<path d="M654.742 94.4075L654.759 95.3376L649.898 95.9343L647.371 95.4253L654.742 94.4075Z" fill="#999B8C"/>
<path d="M654.619 94.2145L657.637 95.0218L660.199 94.6708L660.147 95.6184L660.778 95.7939L659.55 95.9343L656.812 95.0744L654.759 95.3376L654.741 94.4075L654.232 94.2496L654.619 94.2145Z" fill="#F8FFDD"/>
<path d="M591.405 47.5854L589.036 49.5861L593.599 51.3586L602.374 51.7798L611.131 50.3758L612.482 48.7613L608.06 47.1467L600.689 46.6378L591.405 47.5854Z" fill="#66685B"/>
<path d="M589.036 49.5862V53.0785L593.599 54.8511V51.3587L589.036 49.5862Z" fill="#3C3D33"/>
<path d="M602.373 51.7797L593.599 51.3585V54.8508L602.373 55.3071V51.7797Z" fill="#66685B"/>
<path d="M611.13 50.3758L602.373 51.7798V55.3072L611.13 54.0963V50.3758Z" fill="#999B8C"/>
<path d="M612.482 48.7612V51.3585L611.131 54.0962V50.3757L612.482 48.7612Z" fill="#999B8C"/>
<path d="M596.337 48.0593L599.075 47.7609L607.849 50.0775L603.989 50.4811L596.337 48.0593Z" fill="#999B8C"/>
<path d="M591.81 49.9722L607.85 47.7785L609.921 48.5682L594.354 50.4811L591.81 49.9722Z" fill="#999B8C"/>
<path d="M599.074 47.7609V48.7612L602.093 49.5861L602.128 48.5682L599.074 47.7609Z" fill="#3C3D33"/>
<path d="M604.638 49.2175L604.603 50.1651L605.234 50.3582L607.849 50.0774L604.638 49.2175Z" fill="#3C3D33"/>
<path d="M599.18 48.9717L599.198 49.8843L594.354 50.481L591.81 49.9721L599.18 48.9717Z" fill="#999B8C"/>
<path d="M599.075 48.7612L602.093 49.586L604.638 49.2175L604.603 50.1651L605.234 50.3582L603.988 50.481L601.268 49.6211L599.197 49.8843L599.18 48.9718L598.671 48.8138L599.075 48.7612Z" fill="#F8FFDD"/>
<path d="M583.947 56.606L598.671 62.6606V65.1351L583.947 60.4318V56.606Z" fill="#262626"/>
<path d="M606.077 64.6437L624.364 70.7685L623.75 75.1208L606.077 68.4519V64.6437Z" fill="#262626"/>
<path d="M306.119 178.014L434.476 158.99L790.013 283.013L929.795 240.122L592.528 129.507L725.448 113.203L584.858 76.2439L179.832 125.646L306.119 178.014Z" fill="#66685B"/>
<path d="M179.832 125.646L182.429 146.337L304.732 192.72L306.119 178.014L179.832 125.646Z" fill="#262626"/>
<path d="M434.476 158.99V172.837L789.802 298.474L790.012 283.013L434.476 158.99Z" fill="#262626"/>
<path d="M304.732 192.72L434.476 172.837V158.99L306.119 178.014L304.732 192.72Z" fill="#3C3D33"/>
<path d="M790.013 283.013L929.796 240.122L925.18 258.794L789.803 298.474L790.013 283.013Z" fill="#3C3D33"/>
<path d="M725.449 113.203V125.646L615.887 136.685L592.528 129.507L725.449 113.203Z" fill="#3C3D33"/>
<path d="M595.424 62.8185L562.168 47.1292L540.126 53.8331L484.722 40.3024L485.915 46.1991L527.806 54.7808L561.589 59.4315L595.073 69.7857L595.424 62.8185Z" fill="#93B212"/>
<path d="M388.795 139.458L602.408 115.239L461.696 74.8049L272.529 100.217L388.795 139.458Z" fill="#999B8C"/>
<path d="M369.122 103.621L392.867 113.572L399.237 112.063L403.589 113.642L413.698 112.431L385.092 99.848L373.439 100.866L375.738 102.445L369.122 103.621Z" fill="#C2EF13"/>
<path opacity="0.54" d="M288.307 102.638L465.68 76.9283L497.287 87.2475L484.002 88.7919L466.716 80.7717L360.628 97.1454L367.929 99.304L397.728 93.9163L405.573 96.6014L414.962 94.32L422.42 97.514L393.955 101.375L379.389 104.025L362.857 105.587L369.263 107.307L331.163 116.52L339.709 119.697L393.341 109.43L389.55 107.587L386.075 109.202L380.319 107.131L392.323 104.358L403.221 103.428L455.08 117.643L412.715 125.892L395.166 115.467L366.718 122.645L362.857 119.714L437.846 100.743L478.895 112.045L493.847 118.451L543.337 114.941L537.581 105.078L495.602 114.941L484.476 98.3739L497.69 92.1263L523.927 104.025" stroke="#66685B" stroke-width="0.596685" stroke-miterlimit="10"/>
<path d="M388.795 150.286V139.457L272.529 100.217V109.22L388.795 150.286Z" fill="#262626"/>
<path d="M388.795 150.285V139.457L602.408 115.239V125.014L388.795 150.285Z" fill="#3C3D33"/>
<path d="M282.286 100.199L305.627 95.8116L308.681 96.6014L285.568 100.954L282.286 100.199Z" fill="#F8FFDD"/>
<path d="M285.568 102.024V100.954L308.681 96.6013V97.7069L285.568 102.024Z" fill="#66685B"/>
<path d="M282.286 100.199V101.305L285.568 102.024V100.954L282.286 100.199Z" fill="#3C3D33"/>
<path d="M405.31 127.12L395.236 125.067L387.357 125.611L380.319 128.296L380.477 131.876L390.147 134.158L401.256 133.947L407.644 130.613L405.327 127.138L405.31 127.12ZM397.606 131.771L392.06 131.876L387.234 130.735L387.164 128.945L390.674 127.612L394.605 127.348L399.641 128.366L400.8 130.104L397.606 131.771Z" fill="#F8FFDD"/>
<path d="M380.477 131.859L380.319 133.613L390.2 135.755L390.147 134.14L380.477 131.859Z" fill="#262626"/>
<path d="M390.146 134.14L401.255 133.947L401.624 135.456L390.199 135.755L390.146 134.14Z" fill="#3C3D33"/>
<path d="M407.626 130.595V132.964L401.624 135.456L401.256 133.947L407.626 130.595Z" fill="#3C3D33"/>
<path d="M394.604 127.331V128.963L399.273 129.876L399.641 128.366L394.604 127.331Z" fill="#262626"/>
<path d="M400.167 130.437L399.272 129.875L399.641 128.366L400.799 130.104L400.167 130.437Z" fill="#262626"/>
<path d="M387.234 130.735L388.006 129.876L390.762 128.998L394.605 128.963V127.331L390.674 127.612L387.164 128.945L387.234 130.735Z" fill="#3C3D33"/>
<path d="M292.396 102.323V52.8328L323.635 60.2738L322.389 111.694L292.396 102.323Z" fill="#262626"/>
<path d="M344.763 57.6414L323.634 60.2739L322.388 111.694L360.628 105.043V77.4198L344.763 57.6414Z" fill="#66685B"/>
<path d="M292.396 52.8329L316.738 49.5511L344.764 57.6414L323.635 60.2739L292.396 52.8329Z" fill="#999B8C"/>
<path d="M457.678 79.6134V30.1236L488.898 37.5646L487.652 88.9848L457.678 79.6134Z" fill="#262626"/>
<path d="M436.53 32.4928L460.872 29.211L488.898 37.2838L467.751 39.9338L436.53 32.4928Z" fill="#999B8C"/>
<path d="M323.161 79.5081L317.615 80.7716V100.217L322.687 99.0407L323.161 79.5081Z" fill="#66685B"/>
<path d="M292.396 71.9619L323.16 79.5082L317.614 80.7718L288.307 73.243L292.396 71.9619Z" fill="#999B8C"/>
<path d="M288.307 73.243L289.114 91.9859L317.614 100.217V80.7717L288.307 73.243Z" fill="#262626"/>
<path d="M290.518 76.3668L300.117 78.6483V92.7406L290.833 90.1783L290.518 76.3668Z" fill="#262626"/>
<path d="M293.325 88.6689L300.117 90.3537V92.7404L290.833 90.1782L293.325 88.6689Z" fill="#999B8C"/>
<path d="M290.518 76.3668L290.833 90.1783L293.325 88.6691V77.0337L290.518 76.3668Z" fill="#66685B"/>
<path d="M304.61 80.7716L314.21 83.053V97.1453L304.926 94.5831L304.61 80.7716Z" fill="#262626"/>
<path d="M307.418 93.0739L314.21 94.7411V97.1454L304.926 94.5831L307.418 93.0739Z" fill="#999B8C"/>
<path d="M304.61 80.7716L304.926 94.5831L307.418 93.0738V81.4385L304.61 80.7716Z" fill="#66685B"/>
<path d="M467.752 39.9339L453.186 63.1169V95.1097L487.653 88.9849L488.899 37.2839L467.752 39.9339Z" fill="#66685B"/>
<path d="M453.185 63.117L423 54.9213L436.531 32.493L467.751 39.934L453.185 63.117Z" fill="#66685B"/>
<path d="M453.185 95.1096L423 84.6677V54.9211L453.185 63.1168V95.1096Z" fill="#262626"/>
<path d="M522.365 56.2198L546.706 52.938L574.733 61.0284L553.603 63.6608L522.365 56.2198Z" fill="#999B8C"/>
<path d="M377.966 102.2L377.808 98.5493L402.184 107.271L402.166 111.396L377.966 102.2Z" fill="#262626"/>
<path d="M398.797 97.1104L377.808 98.5494L402.184 107.272L424.63 105.078L398.797 97.1104Z" fill="#999B8C"/>
<path d="M424.631 105.078L424.789 108.869L402.168 111.396L402.186 107.272L424.631 105.078Z" fill="#3C3D33"/>
<path d="M380.968 101.375L376.896 101.708L379.845 102.638L383.565 102.305L380.968 101.375Z" fill="#F8FFDD"/>
<path d="M383.634 103.674L383.564 102.305L379.844 102.638L379.967 105.587L381.458 105.236L381.388 103.604L383.634 103.674Z" fill="#999B8C"/>
<path d="M376.896 101.708L377.019 104.481L379.968 105.587L379.845 102.638L376.896 101.708Z" fill="#3C3D33"/>
<path d="M385.829 103.095L381.74 103.428L384.689 104.358L388.427 104.025L385.829 103.095Z" fill="#F8FFDD"/>
<path d="M388.479 105.394L388.427 104.025L384.688 104.358L384.811 107.307L386.303 106.956L386.233 105.324L388.479 105.394Z" fill="#999B8C"/>
<path d="M381.74 103.428L381.863 106.201L384.811 107.307L384.689 104.358L381.74 103.428Z" fill="#3C3D33"/>
<path d="M390.673 104.99L386.602 105.306L389.55 106.236L393.27 105.903L390.673 104.99Z" fill="#F8FFDD"/>
<path d="M393.341 107.271L393.27 105.903L389.55 106.236L389.673 109.202L391.164 108.833L391.094 107.201L393.341 107.271Z" fill="#999B8C"/>
<path d="M386.602 105.306L386.724 108.079L389.673 109.202L389.55 106.236L386.602 105.306Z" fill="#3C3D33"/>
<path d="M395.708 106.85L391.619 107.184L394.567 108.114L398.306 107.781L395.708 106.85Z" fill="#F8FFDD"/>
<path d="M398.358 109.15L398.305 107.781L394.567 108.114L394.69 111.062L396.182 110.711L396.112 109.079L398.358 109.15Z" fill="#999B8C"/>
<path d="M391.619 107.184L391.742 109.957L394.69 111.062L394.567 108.114L391.619 107.184Z" fill="#3C3D33"/>
<path d="M383.443 99.2337L398.694 98.3914L418.595 104.393L403.187 105.973L383.443 99.2337Z" fill="#66685B"/>
<path d="M424.648 105.797L425.491 105.762L425.596 108.202L424.754 108.061L424.648 105.797Z" fill="#999B8C"/>
<path d="M398.694 98.3914L398.747 99.5672C398.747 99.5672 386.251 100.199 386.164 100.164L383.443 99.2337L398.694 98.3914Z" fill="#3C3D33"/>
<path d="M398.692 98.3914L398.745 99.5672L415.645 104.692L418.594 104.393L398.692 98.3914Z" fill="#262626"/>
<path d="M499.972 112.308L504.78 111.132L511.712 112.923L506.096 114.291L499.972 112.308Z" fill="#F8FFDD"/>
<path d="M499.973 112.308L499.938 113.467L505.975 115.467L506.097 114.291L499.973 112.308Z" fill="#3C3D33"/>
<path d="M511.714 112.922L511.697 114.221L505.976 115.467L506.098 114.291L511.714 112.922Z" fill="#66685B"/>
<path d="M553.602 63.6608L539.019 86.8613V118.837L573.486 112.729L574.732 61.0283L553.602 63.6608Z" fill="#66685B"/>
<path d="M539.02 86.8613L508.835 78.6481L522.366 56.2198L553.604 63.6608L539.02 86.8613Z" fill="#66685B"/>
<path d="M539.02 118.837L508.835 108.395V78.6482L539.02 86.8614V118.837Z" fill="#262626"/>
<path d="M407.627 125.418L417.683 130.507L419.771 67.2584L409.013 61.6777L407.627 125.418Z" fill="#262626"/>
<path d="M395.183 89.5992L453.184 111.133L455.272 47.8663L396.551 25.8592L395.183 89.5992Z" fill="#262626"/>
<path d="M506.991 120.363L417.682 130.507L419.77 67.2584L506.991 61.0283V120.363Z" fill="#66685B"/>
<path d="M409.012 61.6778L419.77 67.2585L506.991 61.0635L492.6 56.29L409.012 61.6778Z" fill="#999B8C"/>
<path d="M396.552 25.8592L411.293 24.5605L467.75 46.3396L455.273 47.8664L396.552 25.8592Z" fill="#999B8C"/>
<path d="M367.174 38.916L420.753 63.1169V52.8328L367.174 30.2114V38.916Z" fill="#3C3D33"/>
<path d="M420.753 63.1167L490.565 58.3081V47.8661L420.753 52.8327V63.1167Z" fill="#66685B"/>
<path d="M367.174 30.2115L429.229 25.8592L490.565 47.8663L420.753 52.8329L367.174 30.2115Z" fill="#F8FFDD"/>
<path d="M419.191 72.225L431.915 71.6108V74.8574L419.191 75.8227V72.225Z" fill="#262626"/>
<path d="M419.191 75.8227L416.979 75.1733L429.317 74.0502L431.914 74.8574L419.191 75.8227Z" fill="#999B8C"/>
<path d="M418.576 80.561L431.317 79.9468V83.1934L418.576 84.1587V80.561Z" fill="#262626"/>
<path d="M418.577 84.1587L416.383 83.5094L428.72 82.3862L431.317 83.1935L418.577 84.1587Z" fill="#999B8C"/>
<path d="M418.576 89.4061L431.317 88.7919V92.0385L418.576 93.0038V89.4061Z" fill="#262626"/>
<path d="M418.577 93.0038L416.383 92.3545L428.72 91.2313L431.317 92.0386L418.577 93.0038Z" fill="#999B8C"/>
<path d="M418.104 97.1455L430.844 96.5312V99.7779L418.104 100.743V97.1455Z" fill="#262626"/>
<path d="M418.104 100.743L415.91 100.094L428.23 98.9705L430.845 99.7777L418.104 100.743Z" fill="#999B8C"/>
<path d="M418.104 105.008L430.844 104.376V107.623L418.104 108.588V105.008Z" fill="#262626"/>
<path d="M418.104 108.588L415.91 107.939L428.23 106.833L430.845 107.623L418.104 108.588Z" fill="#999B8C"/>
<path d="M417.488 113.449L430.229 112.835V116.081L417.488 117.047V113.449Z" fill="#262626"/>
<path d="M417.489 117.047L415.295 116.397L427.632 115.274L430.23 116.081L417.489 117.047Z" fill="#999B8C"/>
<path d="M417.488 121.153L430.229 120.539V123.786L417.488 124.751V121.153Z" fill="#262626"/>
<path d="M417.489 124.751L415.295 124.102L427.632 122.978L430.23 123.786L417.489 124.751Z" fill="#999B8C"/>
<path d="M438.742 65.9071V90.108L453.185 88.9848L453.747 64.8366L448.903 61.6777L434.196 62.5727L438.742 65.9071Z" fill="#262626"/>
<path d="M453.184 88.9849L447.709 84.3694L438.741 85.2644V90.1081L453.184 88.9849Z" fill="#999B8C"/>
<path d="M436.249 63.1168L448.306 62.3973L452.307 64.8718L439.654 65.7492L436.249 63.1168Z" fill="#999B8C"/>
<path d="M451.256 88.0899L452.308 64.8718L439.655 65.7493V88.9849L451.256 88.0899Z" fill="#66685B"/>
<path d="M436.249 63.1169V64.0646L438.741 65.9073V88.2654L439.654 88.9849V65.7493L436.249 63.1169Z" fill="#3C3D33"/>
<path d="M423.86 56.29V59.3612L425.229 59.9228L424.948 63.538L427.177 65.135L427.581 58.7294L423.86 56.29Z" fill="#262626"/>
<path d="M432.582 58.361L427.581 58.7295L423.86 56.2901L428.88 55.9391L432.582 58.361Z" fill="#F8FFDD"/>
<path d="M427.177 65.1352L432.582 64.6087V58.361L427.58 58.7296L427.177 65.1352Z" fill="#BFC1B2"/>
<path d="M418.19 48.2523L421.718 47.6556L426.649 49.3403L422.508 50.0072L418.19 48.2523Z" fill="#999B8C"/>
<path d="M418.191 48.2522L418.104 49.077L422.351 50.8671L422.508 50.0072L418.191 48.2522Z" fill="#3C3D33"/>
<path d="M426.65 49.3403L426.562 50.2704L422.351 50.8671L422.509 50.0072L426.65 49.3403Z" fill="#66685B"/>
<path d="M350.853 119.697L360.277 117.38L373.895 120.908L362.856 123.575L350.853 119.697Z" fill="#F8FFDD"/>
<path d="M350.852 119.697L350.782 121.96L362.611 125.892L362.856 123.575L350.852 119.697Z" fill="#3C3D33"/>
<path d="M373.896 120.908L373.861 123.435L362.611 125.892L362.857 123.575L373.896 120.908Z" fill="#66685B"/>
<path d="M375.688 88.4409L382.953 86.8263L393.325 89.7746L384.831 91.6349L375.688 88.4409Z" fill="#F8FFDD"/>
<path d="M375.687 88.4409L375.6 90.1608L384.585 93.3899L384.831 91.6349L375.687 88.4409Z" fill="#3C3D33"/>
<path d="M393.325 89.7747L393.254 91.7227L384.585 93.3899L384.831 91.6349L393.325 89.7747Z" fill="#66685B"/>
<path d="M512.186 116.573L516.994 115.38L523.926 117.187L518.31 118.538L512.186 116.573Z" fill="#F8FFDD"/>
<path d="M512.186 116.573L512.151 117.714L518.171 119.714L518.311 118.539L512.186 116.573Z" fill="#3C3D33"/>
<path d="M523.926 117.187L523.909 118.468L518.17 119.714L518.31 118.539L523.926 117.187Z" fill="#66685B"/>
<path d="M426.737 47.4099L430.282 46.8132L435.196 48.498L431.055 49.1649L426.737 47.4099Z" fill="#999B8C"/>
<path d="M426.738 47.4099L426.65 48.2347L430.897 50.0072L431.055 49.1648L426.738 47.4099Z" fill="#3C3D33"/>
<path d="M435.197 48.4979L435.109 49.4281L430.897 50.0072L431.055 49.1648L435.197 48.4979Z" fill="#66685B"/>
<path d="M436.338 46.7958L439.883 46.1991L444.797 47.8839L440.655 48.5683L436.338 46.7958Z" fill="#999B8C"/>
<path d="M436.338 46.7957L436.25 47.6205L440.497 49.4106L440.655 48.5682L436.338 46.7957Z" fill="#3C3D33"/>
<path d="M444.797 47.8838L444.709 48.8139L440.497 49.4106L440.655 48.5682L444.797 47.8838Z" fill="#66685B"/>
<path d="M445.463 46.3746L449.008 45.7779L453.922 47.4626L449.78 48.1471L445.463 46.3746Z" fill="#999B8C"/>
<path d="M445.463 46.3745L445.375 47.1993L449.622 48.9894L449.78 48.147L445.463 46.3745Z" fill="#3C3D33"/>
<path d="M453.922 47.4626L453.852 48.3927L449.622 48.9894L449.78 48.147L453.922 47.4626Z" fill="#66685B"/>
<path d="M454.712 45.655L458.257 45.0759L463.171 46.7431L459.029 47.4275L454.712 45.655Z" fill="#999B8C"/>
<path d="M454.712 45.6549L454.624 46.4973L458.871 48.2698L459.029 47.4274L454.712 45.6549Z" fill="#3C3D33"/>
<path d="M463.171 46.743L463.1 47.6907L458.871 48.2698L459.029 47.4274L463.171 46.743Z" fill="#66685B"/>
<path d="M463.573 45.1987L467.101 44.602L472.032 46.2867L467.89 46.9536L463.573 45.1987Z" fill="#999B8C"/>
<path d="M463.573 45.1986L463.485 46.0234L467.732 47.7959L467.89 46.9536L463.573 45.1986Z" fill="#3C3D33"/>
<path d="M472.032 46.2867L471.944 47.2168L467.732 47.7959L467.89 46.9536L472.032 46.2867Z" fill="#66685B"/>
<path d="M472.577 44.5142L476.122 43.9175L481.036 45.6022L476.894 46.2691L472.577 44.5142Z" fill="#999B8C"/>
<path d="M472.577 44.5141L472.489 45.3389L476.736 47.129L476.894 46.2691L472.577 44.5141Z" fill="#3C3D33"/>
<path d="M481.036 45.6022L480.966 46.5323L476.736 47.129L476.894 46.2691L481.036 45.6022Z" fill="#66685B"/>
<path d="M384.461 30.0359V24.4551L420.876 39.2494L420.613 45.5146L384.461 30.0359Z" fill="#262626"/>
<path d="M416.401 23.6128L384.461 24.4552L420.876 39.2495L455.08 37.3541L416.401 23.6128Z" fill="#999B8C"/>
<path d="M455.08 37.354V43.1103L420.612 45.5146L420.876 39.2494L455.08 37.354Z" fill="#3C3D33"/>
<path d="M389.093 28.9655L382.881 29.1936L387.286 30.8082L392.972 30.5274L389.093 28.9655Z" fill="#F8FFDD"/>
<path d="M392.971 32.5983V30.5274L387.285 30.8082V35.2833L389.567 34.8446V32.3526L392.971 32.5983Z" fill="#999B8C"/>
<path d="M382.881 29.1936V33.4055L387.286 35.2833V30.8082L382.881 29.1936Z" fill="#3C3D33"/>
<path d="M396.324 31.8785L390.129 32.1242L394.534 33.7212L400.22 33.4405L396.324 31.8785Z" fill="#F8FFDD"/>
<path d="M400.219 35.5289V33.4405L394.533 33.7213V38.214L396.815 37.7752V35.2832L400.219 35.5289Z" fill="#999B8C"/>
<path d="M390.129 32.1243V36.3362L394.534 38.214V33.7213L390.129 32.1243Z" fill="#3C3D33"/>
<path d="M403.571 35.0551L397.376 35.2833L401.781 36.8978L407.467 36.617L403.571 35.0551Z" fill="#F8FFDD"/>
<path d="M407.466 38.6879V36.6171L401.78 36.8979V41.373L404.062 40.9343V38.4422L407.466 38.6879Z" fill="#999B8C"/>
<path d="M397.376 35.2833V39.4952L401.781 41.373V36.8978L397.376 35.2833Z" fill="#3C3D33"/>
<path d="M411.084 38.2139L404.889 38.4596L409.276 40.0566L414.962 39.7758L411.084 38.2139Z" fill="#F8FFDD"/>
<path d="M414.962 41.8643V39.7759L409.276 40.0567V44.5318L411.575 44.0931V41.601L414.962 41.8643Z" fill="#999B8C"/>
<path d="M404.889 38.4597V42.654L409.276 44.5318V40.0567L404.889 38.4597Z" fill="#3C3D33"/>
<path d="M392.972 25.8591L416.155 25.5607L445.989 35.9325L422.508 37.354L392.972 25.8591Z" fill="#66685B"/>
<path d="M455.079 38.4597H456.36V42.1626L455.079 41.8994V38.4597Z" fill="#999B8C"/>
<path d="M416.155 25.5607V27.3508C416.155 27.3508 397.148 27.5087 397.026 27.4561C396.903 27.4034 392.972 25.8766 392.972 25.8766L416.155 25.5607Z" fill="#3C3D33"/>
<path d="M416.155 25.5607V27.3332L441.497 36.1958L445.99 35.9325L416.155 25.5607Z" fill="#262626"/>
<path d="M341.096 116.134L379.599 108.921L384.636 110.22L346.519 117.38L341.096 116.134Z" fill="#F8FFDD"/>
<path d="M346.519 119.153V117.38L384.636 110.22V112.045L346.519 119.153Z" fill="#66685B"/>
<path d="M341.096 116.134V117.977L346.519 119.153V117.38L341.096 116.134Z" fill="#3C3D33"/>
<path d="M331.163 113.502L369.684 106.289L374.721 107.587L336.603 114.748L331.163 113.502Z" fill="#F8FFDD"/>
<path d="M336.603 116.52V114.747L374.72 107.587V109.412L336.603 116.52Z" fill="#66685B"/>
<path d="M331.163 113.501V115.344L336.603 116.52V114.747L331.163 113.501Z" fill="#3C3D33"/>
<path d="M275.338 109.343L290.834 107.781L301.785 111.396L280.971 112.659L275.338 109.343Z" fill="#C2EF13"/>
<path d="M279.971 121.785L300.03 120.486L318.562 127.892L328.197 116.52V107.307L322.388 107.71L321.932 115.011L317.088 120.908L301.785 111.396L280.971 112.659L279.971 121.785Z" fill="#93B212"/>
<path d="M304.611 80.7719L301.294 91.635L308.682 97.7072L322.389 107.71L328.197 107.307L314.21 95.7592L308.015 90.1082L314.21 83.0533L304.611 80.7719Z" fill="#C2EF13"/>
<path d="M308.015 90.1082L301.294 91.635L304.611 80.7719L314.21 83.0533L308.015 90.1082Z" fill="#93B212"/>
<path d="M301.294 91.6349V98.3739L318.58 109.43L318.563 113.642L313.649 118.767L317.089 120.908L321.932 115.011L322.389 107.71L301.294 91.6349Z" fill="#616D1D"/>
<path d="M314.211 83.0533V95.7592L308.016 90.1083L314.211 83.0533Z" fill="#616D1D"/>
<path d="M260.912 100.954L265.317 86.7386L272.53 88.6165L266.721 104.973L260.912 100.954Z" fill="#93B212"/>
<path d="M265.316 86.7386L290.518 76.3668L300.117 78.6483L272.529 88.6164L265.316 86.7386Z" fill="#C2EF13"/>
<path d="M300.118 78.6483V92.7406L277.11 96.0926L271.073 106.745L266.721 104.973L272.53 88.6165L300.118 78.6483Z" fill="#93B212"/>
<path d="M455.273 61.6779L466.295 53.0611L483.563 47.375L498.831 50.0074L523.927 63.661L516.363 65.1352L497.621 54.0438L483.3 51.3587L468.945 55.0091L457.432 63.117L455.273 61.6779Z" fill="#93B212"/>
<path d="M492.83 61.0286L457.433 63.117L468.945 55.0091L483.301 51.3588L497.621 54.0438L500.833 55.9392L495.761 57.3256L492.83 61.0286Z" fill="#616D1D"/>
<path d="M483.563 47.375L489.162 45.6025L490.724 45.8657L491.408 44.8654L497.094 43.0578L498.516 43.321L499.06 42.4084L504.746 40.6008L506.255 40.8465L506.992 39.9339L512.099 38.3018L513.363 38.5826L513.942 37.7051L516.767 36.8101L527.806 40.0568L539.02 49.9723L539.476 60.9057L523.927 63.661L498.832 50.0074L483.563 47.375Z" fill="#C2EF13"/>
<path d="M490.724 45.8656L501.183 47.0414L526.49 63.1168L527.455 63.0466L502.201 46.3746L491.408 44.8653L490.724 45.8656Z" fill="#93B212"/>
<path d="M498.515 43.3209L504.218 44.1984L519.837 51.7271L529.612 62.6605H530.543L520.346 51.3586L504.885 43.0752L499.059 42.4083L498.515 43.3209Z" fill="#93B212"/>
<path d="M506.255 40.8466L508.835 41.2853L523.313 47.1293L531.21 55.0266L532.667 62.1167L533.597 61.9587L531.842 54.5879L523.927 46.3572L509.396 40.3201L506.992 39.934L506.255 40.8466Z" fill="#93B212"/>
<path d="M513.361 38.5826L516.31 39.3548L526.05 43.1806L535.088 51.3587L537.001 61.3444L537.545 61.2566L535.948 50.6743L526.559 41.9872L516.854 38.3369L513.94 37.7051L513.361 38.5826Z" fill="#93B212"/>
<path d="M249.401 135.491L281.692 142.652V105.991L248.944 109.343L249.401 135.491Z" fill="#999B8C"/>
<path d="M281.692 105.991L226.692 88.6165L200.087 90.5294L248.945 109.342L281.692 105.991Z" fill="#F8FFDD"/>
<path d="M271.075 156.41V143.722L249.401 135.491L248.945 109.342L200.087 90.5293L199.876 122.013L271.075 156.41Z" fill="#66685B"/>
<path d="M281.692 132.438L302.663 140.317L271.074 143.722L249.4 135.491L281.692 132.438Z" fill="#F8FFDD"/>
<path d="M271.075 143.722L302.664 140.317V152.076L271.075 156.41V143.722Z" fill="#999B8C"/>
<path d="M440.496 63.6609L441.988 64.8718L450.622 58.7295L469.874 59.7298L485.985 69.2943L490.565 68.9082L471.032 57.3255L449.692 55.4126L440.496 63.6609Z" fill="#93B212"/>
<path d="M449.692 55.4125L455.712 54.0436L472.577 54.9211L493.461 66.6969L490.565 68.9081L471.033 57.3254L449.692 55.4125Z" fill="#C2EF13"/>
<path d="M441.987 64.8718L447.586 64.3805L453.184 58.8523L450.323 58.7295L441.987 64.8718Z" fill="#616D1D"/>
<path d="M266.142 132.596L263.772 134.579L268.335 136.369L277.11 136.79L285.867 135.386L287.219 133.771L282.796 132.139L275.425 131.648L266.142 132.596Z" fill="#66685B"/>
<path d="M263.772 134.579V138.089L268.335 139.861V136.369L263.772 134.579Z" fill="#3C3D33"/>
<path d="M277.11 136.79L268.335 136.369V139.861L277.11 140.317V136.79Z" fill="#66685B"/>
<path d="M285.867 135.386L277.109 136.79V140.317L285.867 139.089V135.386Z" fill="#999B8C"/>
<path d="M287.219 133.771V136.369L285.867 139.089V135.386L287.219 133.771Z" fill="#999B8C"/>
<path d="M271.073 133.069L273.811 132.771L282.586 135.07L278.725 135.491L271.073 133.069Z" fill="#999B8C"/>
<path d="M266.546 134.982L282.586 132.789L284.657 133.578L269.091 135.491L266.546 134.982Z" fill="#999B8C"/>
<path d="M273.811 132.771V133.771L276.829 134.579L276.864 133.578L273.811 132.771Z" fill="#3C3D33"/>
<path d="M279.374 134.228L279.339 135.175L279.971 135.351L282.586 135.07L279.374 134.228Z" fill="#3C3D33"/>
<path d="M273.917 133.964L273.934 134.894L269.091 135.491L266.546 134.982L273.917 133.964Z" fill="#999B8C"/>
<path d="M273.811 133.771L276.829 134.579L279.374 134.228L279.339 135.175L279.971 135.351L278.725 135.491L276.005 134.631L273.934 134.895L273.916 133.964L273.407 133.806L273.811 133.771Z" fill="#F8FFDD"/>
<path d="M387.515 125.734L385.865 127.454L389.042 129.016L395.149 129.384L401.239 128.156L402.169 126.752L399.098 125.33L393.973 124.891L387.515 125.734Z" fill="#66685B"/>
<path d="M385.865 127.453V130.525L389.042 132.069V129.015L385.865 127.453Z" fill="#3C3D33"/>
<path d="M395.148 129.384L389.041 129.016V132.069L395.148 132.455V129.384Z" fill="#66685B"/>
<path d="M401.239 128.156L395.149 129.384V132.455L401.239 131.402V128.156Z" fill="#999B8C"/>
<path d="M402.168 126.752V129.016L401.238 131.402V128.156L402.168 126.752Z" fill="#999B8C"/>
<path d="M390.937 126.138L392.849 125.874L398.957 127.892L396.272 128.261L390.937 126.138Z" fill="#999B8C"/>
<path d="M387.795 127.805L398.956 125.892L400.396 126.576L389.567 128.261L387.795 127.805Z" fill="#999B8C"/>
<path d="M392.851 125.874V126.752L394.957 127.454L394.974 126.576L392.851 125.874Z" fill="#3C3D33"/>
<path d="M396.728 127.138L396.693 127.98L397.132 128.138L398.957 127.892L396.728 127.138Z" fill="#3C3D33"/>
<path d="M392.919 126.927L392.937 127.734L389.567 128.261L387.795 127.805L392.919 126.927Z" fill="#999B8C"/>
<path d="M392.85 126.752L394.956 127.454L396.729 127.138L396.693 127.98L397.132 128.138L396.272 128.261L394.377 127.506L392.938 127.734L392.92 126.927L392.569 126.787L392.85 126.752Z" fill="#F8FFDD"/>
<path d="M438.637 73.9449L718.658 164.764L835.029 137.86L572.715 55.7109L567.609 55.4126L440.743 70.6456L437.479 71.9092L438.637 73.9449Z" fill="#66685B"/>
<path d="M432.107 78.0341L432.388 150.637L718.657 248.511L725.045 241.736L733.977 253.758L744.104 233.242L745.999 218.273L748.561 217.571L746.087 216.5L746.613 203.04L735.153 169.906L725.87 176.329L718.657 164.764L438.636 73.945L432.107 78.0341Z" fill="#262626"/>
<path d="M474.507 77.5778V73.7871L564.483 62.3272H571.17L796.015 132.631L799.402 136.685L722.201 152.778H707.776L474.507 79.3854" fill="#868974"/>
<path d="M533.79 79.8241L515.608 82.4741L520.61 84.036L533.316 82.1231L538.107 83.6323L543.302 82.8251L533.807 79.8241H533.79Z" fill="#C2EF13"/>
<path d="M590.597 96.2504L596.494 95.0394L614.166 100.673L608.568 101.954L601.864 99.8305L583.7 103.814L578.962 102.34L597.354 98.4089L590.58 96.2679L590.597 96.2504Z" fill="#C2EF13"/>
<path fill-rule="evenodd" clip-rule="evenodd" d="M571.556 87.0896L545.108 91.7227L549.987 93.2495L559.639 96.268L575.908 93.1617L566.677 90.231L576.118 88.5287L571.573 87.0896H571.556ZM561.78 91.1085L555.112 92.3018L559.903 93.8111L566.484 92.5826L561.78 91.0909V91.1085Z" fill="#C2EF13"/>
<path fill-rule="evenodd" clip-rule="evenodd" d="M545.443 83.5271L527.806 86.2999L532.737 87.8443L542.547 90.9154L559.553 87.9847L545.443 83.5095V83.5271ZM545.074 85.8436L538.107 86.9668L542.968 88.4936L549.848 87.3353L545.074 85.8261V85.8436Z" fill="#C2EF13"/>
<path fill-rule="evenodd" clip-rule="evenodd" d="M578.314 93.9338L562.168 97.0577L571.75 100.059L576.506 101.55L592.055 98.2861L578.331 93.9338H578.314ZM578.243 96.3206L571.873 97.5841L576.594 99.0583L582.894 97.7772L578.261 96.3206H578.243Z" fill="#C2EF13"/>
<path d="M598.232 108.36L612.869 104.885L621.766 107.71L617.607 108.746L613.114 107.324L607.341 108.728L611.921 110.167L607.534 111.273L598.25 108.36H598.232Z" fill="#C2EF13"/>
<path d="M601.427 101.252L586.299 104.622L595.688 107.552L600.216 106.482L595.6 105.025L597.109 104.674L599.759 105.499L602.725 104.815L600.11 103.99L601.584 103.656L606.13 105.095L610.429 104.078L601.444 101.234L601.427 101.252Z" fill="#C2EF13"/>
<path fill-rule="evenodd" clip-rule="evenodd" d="M513.064 85.4048L504.728 86.6684L493.461 83.176L502.025 81.9651L513.064 85.4048Z" fill="#C2EF13"/>
<path fill-rule="evenodd" clip-rule="evenodd" d="M553.34 79.3501L546.303 80.4031L536.159 77.174L543.372 76.1561L553.34 79.3326V79.3501Z" fill="#C2EF13"/>
<path fill-rule="evenodd" clip-rule="evenodd" d="M637.35 106.183L631.822 107.605L622.397 104.604L628.084 103.218L637.35 106.183Z" fill="#C2EF13"/>
<path fill-rule="evenodd" clip-rule="evenodd" d="M605.796 114.309L599.285 115.976L588.896 112.765L595.599 111.132L605.796 114.309Z" fill="#C2EF13"/>
<path fill-rule="evenodd" clip-rule="evenodd" d="M496.566 80.2803L531.121 75.577L536.158 77.174L502.042 81.9826L496.566 80.2803Z" fill="#C2EF13"/>
<path fill-rule="evenodd" clip-rule="evenodd" d="M636.507 109.062L610.779 115.871L605.795 114.309L631.909 107.587L636.524 109.062H636.507Z" fill="#C2EF13"/>
<path d="M771.814 136.948L779.22 135.825L567.467 68.2939L561.588 68.9959L771.814 136.948Z" fill="#262626"/>
<path d="M758.354 139.756L765.76 138.633L554.007 71.1018L548.128 71.8038L758.354 139.756Z" fill="#262626"/>
<path d="M744.929 143.195L752.318 142.09L652.25 111.624L646.371 112.343L744.929 143.195Z" fill="#262626"/>
<path d="M726.8 146.302L734.206 145.196L638.526 116.169L632.646 116.871L726.8 146.302Z" fill="#262626"/>
<path d="M710.128 149.057L717.534 147.951L624.082 119.556L618.203 120.258L710.128 149.057Z" fill="#262626"/>
<path d="M474.507 76.2791L563.343 65.5388H571.38L799.402 136.685L796.015 132.631L571.17 62.3272H564.483L474.507 73.7871V76.2791Z" fill="#262626"/>
<path d="M526.086 208.199V188.122L567.854 113.203L685.138 88.1074L766.673 112.378L667.5 145.81L608.709 222.66V240.262L526.086 208.199Z" fill="#F8FFDD"/>
<path d="M618.783 237.998L608.71 240.262V222.66L667.501 145.81L766.674 112.378L771.131 115.783V117.713L767.305 116.52L671.748 149.882L615.221 221.519L613.606 235.857L618.783 237.998Z" fill="#999B8C"/>
<path d="M667.5 145.81L567.854 113.203L526.086 188.122L608.709 222.66L667.5 145.81Z" fill="#999B8C"/>
<path d="M671.748 149.882L667.501 145.81L608.71 222.66V240.262L618.783 237.998L613.606 235.857L615.221 221.519L671.748 149.882Z" fill="#66685B"/>
<path d="M526.086 188.122L608.709 222.66V240.262L526.086 208.199V188.122Z" fill="#66685B"/>
<path d="M615.221 221.519L608.71 222.66V240.262L618.783 237.998L613.606 235.857L615.221 221.519Z" fill="#3C3D33"/>
<path d="M603.234 89.0376L614.501 99.9886L623.487 101.656L617.66 104.148L623.346 104.78L623.75 106.552L654.637 128.612L758.32 105.71L680.347 82.9128L603.234 89.0376Z" fill="#F8FFDD"/>
<path d="M654.637 132.631V128.612L758.32 105.71L760.917 110.659L757.056 109.325L654.637 132.631Z" fill="#999B8C"/>
<path d="M603.234 89.0376V93.6356L613.431 104.078L614.501 99.9885L603.234 89.0376Z" fill="#3C3D33"/>
<path d="M614.5 99.9885L623.486 101.656L617.659 104.148L617.484 104.902L613.43 104.078L614.5 99.9885Z" fill="#3C3D33"/>
<path d="M623.345 104.779L617.659 104.148L617.027 106.412L623.486 107.482L623.749 106.552L623.345 104.779Z" fill="#3C3D33"/>
<path d="M654.637 128.612L623.75 106.552L623.486 109.764L654.637 132.631V128.612Z" fill="#3C3D33"/>
<path d="M610.201 104.148L611.798 105.815H614.501L611.096 107.482L621.029 108.658L619.836 110.167L653.777 136.281L761.759 110.922L757.056 109.325L654.637 132.631L623.486 109.764V107.482L617.028 106.412L617.484 104.902L613.43 104.078L612.939 103.551L610.201 104.148Z" fill="#66685B"/>
<path d="M93.2959 97.6895V163.36L123.306 232.049L164.652 257.847L213.089 226.328L215.546 148.513L179.394 81.6492L132.484 62.4851L93.2959 97.6895Z" fill="#262626"/>
<path d="M132.484 62.4851L197.277 59.5718L205.104 62.1341L204.789 64.7139L211.019 64.0645L227.322 69.382L227.006 71.9618L234.623 71.7863L248.294 76.2439L179.394 81.6492L132.484 62.4851Z" fill="#66685B"/>
<path d="M179.394 81.6492L248.293 76.2439L249.767 79.4028L247.047 83.6849H251.768L258.314 97.6368L255.295 101.796L259.911 101.059L267.212 116.45L264.193 120.609L268.791 119.995L275.372 134.14L272.371 138.299L277.267 138.053L278.005 139.633L215.546 148.513L179.394 81.6492Z" fill="#3C3D33"/>
<path d="M215.546 148.513L213.089 226.328L278.005 210.937L277.566 200.741L271.722 199.6L271.704 197.968L277.706 197.599L278.005 180.137L272.161 178.997L272.213 177.382L278.005 176.978V161.114L273.266 160.166L273.372 157.762H278.005V139.633L215.546 148.513Z" fill="#3C3D33"/>
<path d="M164.652 257.847L228.691 244.07L278.005 210.937L213.089 226.328L164.652 257.847Z" fill="#262626"/>
<path d="M116.743 112.379L114.321 159.183L135.749 214.377L164.653 227.504L190.381 212.78L194.926 157.341L166.286 105.131L138.961 93.618L116.743 112.379Z" fill="#3C3D33"/>
<path d="M151.753 99.0056L136.889 114.291L135.081 153.866L148.542 199.056L183.869 216.5L190.38 212.779L194.925 157.34L166.284 105.13L151.753 99.0056Z" fill="#262626"/>
<path d="M138.451 138.141V155.831L146.524 174.328L157.668 181.278L170.707 172.784L171.374 151.83L161.634 133.824L148.998 128.664L138.451 138.141Z" fill="#3C3D33"/>
<path d="M148.998 128.665L166.442 127.892L180.184 132.367L161.634 133.824L148.998 128.665Z" fill="#3C3D33"/>
<path d="M161.634 133.824L180.184 132.368L188.186 149.443L171.374 151.83L161.634 133.824Z" fill="#262626"/>
<path d="M171.374 151.83L170.707 172.784L188.186 168.642V149.443L171.374 151.83Z" fill="#262626"/>
<path d="M157.668 181.278L174.902 177.575L188.187 168.642L170.707 172.784L157.668 181.278Z" fill="#262626"/>
<path d="M152.948 153.058L140.593 152.637L145.805 155.235L156.317 153.989L152.948 153.058Z" fill="#F8FFDD"/>
<path d="M145.805 155.235L145.208 159.183L155.159 158.762L156.317 153.989L145.805 155.235Z" fill="#999B8C"/>
<path d="M145.207 159.183L139.749 157.007L140.591 152.637L145.804 155.235L145.207 159.183Z" fill="#66685B"/>
<path d="M184.484 91.0557L219.46 87.0369L238.238 100.69L258.315 97.6368L255.296 101.796L236.816 103.709L218.249 90.3537L182.799 94.2673L184.484 91.0557Z" fill="#262626"/>
<path d="M193.382 109.869L221.602 106.85L247.136 119.503L267.213 116.45L264.195 120.609L245.732 122.522L220.391 110.167L191.697 113.08L193.382 109.869Z" fill="#262626"/>
<path d="M201.542 127.576L229.762 124.54L255.297 137.194L275.373 134.14L272.372 138.299L253.893 140.212L228.551 127.857L199.875 130.77L201.542 127.576Z" fill="#262626"/>
<path d="M214.143 145.916L237.624 142.967L255.63 157.762L249.066 157.288L236.729 145.635L215.547 148.513L214.143 145.916Z" fill="#262626"/>
<path d="M278.006 161.113L262.035 162.079L255.63 161.587L273.267 160.166L278.006 161.113Z" fill="#262626"/>
<path d="M214.985 172.38L239.133 169.292L244.749 170.836L214.897 175.329L214.985 172.38Z" fill="#262626"/>
<path d="M254.805 180.945L272.161 178.997L278.005 180.137L259.21 182.419L254.805 180.945Z" fill="#262626"/>
<path d="M213.633 192.984L237.781 189.895L243.414 191.439L213.545 195.932L213.633 192.984Z" fill="#262626"/>
<path d="M254.348 201.548L271.722 199.6L277.566 200.741L258.77 203.022L254.348 201.548Z" fill="#262626"/>
<path d="M212.563 213.587L236.712 210.516L242.345 212.042L212.476 216.535L212.563 213.587Z" fill="#262626"/>
<path d="M171.374 78.3673L203.595 74.8574L231.376 77.5776L234.886 80.3329L249.768 79.4028L247.048 83.6849H232.991L224.69 78.1918L203.595 76.9985L174.901 79.824L171.374 78.3673Z" fill="#262626"/>
<path d="M156.72 72.5408L185.624 69.1187L209.14 71.0316L227.322 69.3819L227.006 71.9617L209.404 72.9094L185.554 70.7859L158.984 73.4709L156.72 72.5408Z" fill="#262626"/>
<path d="M139.749 67.3286L168.653 63.9065L192.521 64.2048L205.104 62.134L204.788 64.7138L192.784 66.0826L168.601 65.5737L142.03 68.2588L139.749 67.3286Z" fill="#262626"/>
<path d="M827.729 271.219L921.32 294.051L980.357 272.079L892.855 251.23L827.729 271.219Z" fill="#66685B"/>
<path d="M828.429 271.219V287.154L918.405 309.109L922.021 294.051L828.429 271.219Z" fill="#262626"/>
<path d="M981.058 272.08L977.443 289.734L918.406 309.109L922.021 294.052L981.058 272.08Z" fill="#3C3D33"/>
<path d="M1059.19 245.369L1057.86 283.645L1135.92 307.565L1140.32 264.498L1059.19 245.369Z" fill="#262626"/>
<path d="M1135.92 307.565L1149.2 300.369L1151.84 256.987L1140.32 264.498L1135.92 307.565Z" fill="#3C3D33"/>
<path d="M1007.95 272.518L1006.61 310.794L1084.67 334.714L1089.08 291.647L1007.95 272.518Z" fill="#262626"/>
<path d="M1084.67 334.714L1097.96 327.518L1100.59 284.136L1089.08 291.647L1084.67 334.714Z" fill="#3C3D33"/>
<path d="M956.771 296.965L955.42 335.24L1033.48 359.16L1037.9 316.094L956.771 296.965Z" fill="#262626"/>
<path d="M1033.48 359.16L1046.76 351.965L1049.41 308.583L1037.9 316.094L1033.48 359.16Z" fill="#3C3D33"/>
<path d="M899.015 325.606L897.682 363.302L975.742 386.854L980.165 344.454L899.015 325.606Z" fill="#262626"/>
<path d="M975.743 386.854L989.028 379.764L991.678 337.048L980.166 344.454L975.743 386.854Z" fill="#3C3D33"/>
<path d="M841.857 350.122L840.523 387.819L918.566 411.37L922.989 368.97L841.857 350.122Z" fill="#262626"/>
<path d="M918.565 411.37L931.85 404.298L934.5 361.565L922.988 368.97L918.565 411.37Z" fill="#3C3D33"/>
<path d="M843.682 288.014L975.585 239.279L1033.48 251.459L1083.39 234.383L1167.42 248.686L915.706 363.688L824.939 338.961L909.651 304.213L843.682 288.014Z" fill="#999B8C"/>
<path d="M843.682 288.014V303.388L889.346 312.671L909.65 304.213L843.682 288.014Z" fill="#262626"/>
<path d="M824.939 338.961V351.965L913.179 376.657L915.706 363.688L824.939 338.961Z" fill="#3C3D33"/>
<path d="M1167.42 248.686V262.796L913.179 376.657L915.706 363.688L1167.42 248.686Z" fill="#66685B"/>
<path d="M735.154 169.906L845.26 142.827L864.846 184.542L751.739 217.799L735.154 169.906Z" fill="#66685B"/>
<path d="M718.657 164.764L725.87 176.329L735.154 169.906L838.135 144.582L835.028 137.86L718.657 164.764Z" fill="#3C3D33"/>
<path d="M733.979 253.758L852.666 219.922L864.846 184.542L751.739 217.799L733.979 253.758Z" fill="#3C3D33"/>
<path d="M718.657 248.51L727.713 245.334L725.045 241.736L718.657 248.51Z" fill="#3C3D33"/>
<path d="M742.911 235.664L751.739 217.799L746.597 202.969L748.562 202.864L757.758 202.338L763.251 199.67L770.008 183.472L771.131 173.398L827.728 159.008L852.666 188.122L831.449 219.15L771.131 234.383L769.78 228.013L742.911 235.664Z" fill="#999B8C"/>
<path d="M859.228 282.276L941.975 299.036L850.734 337.136L913.176 354.264L1147.55 250.757L1082.07 238.683L1070.03 243.614L1127.67 253.758L913.176 347.841L876.673 335.574L956.769 296.965L881.744 281.24L977.618 244.93L1036.25 259.303L1062.21 247.756L1105.87 256.373L916.598 340.54L896.153 333.872L974.459 294.525L906.612 279.292L922.565 271.395L982.461 290.594L991.675 285.312L938.64 267.306L955.418 259.742L1001.73 280.398L1014.38 274.326L966.719 256.373L981.233 250.388L1034.04 270.36L1061.59 254.899L1084.51 260.532L917.002 332.222" stroke="#868974" stroke-width="1.21092" stroke-miterlimit="10"/>
<path d="M770.797 176.329L826.832 162.833L849.12 189.719L829.43 216.64L770.586 231.856L771.13 234.383L831.448 219.15L852.665 188.122L827.727 159.008L771.13 173.398L770.797 176.329Z" fill="#262626"/>
<path d="M751.739 217.799L849.121 189.719L829.431 216.641L770.587 231.856L769.78 228.013L742.911 235.664L751.739 217.799Z" fill="#3C3D33"/>
<path d="M790.664 262.41L789.698 214.534L816.953 211.165L816.479 195.002L887.59 183.472L890.749 241.526L790.664 262.41Z" fill="#3C3D33"/>
<path d="M790.664 262.41L772.5 254.038L772.781 207.602L789.699 214.534L790.664 262.41Z" fill="#262626"/>
<path d="M772.779 207.602L799.999 203.829L799.402 188.175L863.686 177.909L887.589 183.472L816.478 195.002L816.952 211.165L789.697 214.534L772.779 207.602Z" fill="#66685B"/>
<path d="M818.268 256.653L828.429 262.41L901.119 245.703L890.747 241.526L818.268 256.653Z" fill="#3C3D33"/>
<path d="M911.332 236.384L902.908 234.664L896.327 235.12L890.448 237.366L890.571 240.35L898.661 242.263L907.945 242.087L913.28 239.297L911.332 236.384ZM904.891 240.28L900.258 240.367L896.222 239.42L896.152 237.928L899.083 236.805L902.364 236.577L906.576 237.437L907.542 238.893L904.874 240.28H904.891Z" fill="#F8FFDD"/>
<path d="M890.571 240.35L890.448 241.824L898.697 243.614L898.644 242.263L890.571 240.35Z" fill="#262626"/>
<path d="M898.644 242.263L907.927 242.087L908.243 243.351L898.696 243.614L898.644 242.263Z" fill="#3C3D33"/>
<path d="M913.263 239.297V241.28L908.244 243.351L907.928 242.087L913.263 239.297Z" fill="#3C3D33"/>
<path d="M902.382 236.577V237.946L906.278 238.683L906.594 237.437L902.382 236.577Z" fill="#262626"/>
<path d="M907.032 239.156L906.277 238.683L906.593 237.437L907.558 238.876L907.032 239.156Z" fill="#262626"/>
<path d="M896.222 239.42L896.853 238.683L899.152 237.963L902.381 237.946V236.577L899.082 236.805L896.151 237.91L896.222 239.42Z" fill="#3C3D33"/>
<path d="M828.43 262.41L827.728 200.407L816.479 195.002L818.269 256.653L828.43 262.41Z" fill="#262626"/>
<path d="M905.525 226.17L901.611 227.047L901.471 224.976L905.525 226.17Z" fill="#93B212"/>
<path d="M816.479 195.002L887.589 183.472L902.699 185.806L827.728 200.407L816.479 195.002Z" fill="#66685B"/>
<path d="M902.7 185.806L901.121 245.703L828.43 262.41L827.729 200.407L902.7 185.806Z" fill="#3C3D33"/>
<path d="M769.78 228.013L767.849 225.907L745.263 230.891L742.911 235.664L769.78 228.013Z" fill="#262626"/>
<path d="M799.402 188.175L799.999 203.829L816.952 211.165L816.478 195.002L799.402 188.175Z" fill="#262626"/>
<path d="M809.669 188.579L828.763 196.704L828.57 189.386L809.493 182.84L809.669 188.579Z" fill="#262626"/>
<path d="M828.762 196.704L837.467 194.089V187.245L828.569 189.386L828.762 196.704Z" fill="#3C3D33"/>
<path d="M809.493 182.84L817.25 181.085L837.467 187.245L828.57 189.386L809.493 182.84Z" fill="#F8FFDD"/>
<path d="M790.014 228.732L810.371 228.012V231.979H790.049L790.014 228.732Z" fill="#262626"/>
<path d="M790.014 240.262L810.371 239.525V243.509H790.049L790.014 240.262Z" fill="#262626"/>
<path d="M789.136 252.687L809.493 251.968V254.372L789.697 256.653L789.136 252.687Z" fill="#262626"/>
<path d="M766.673 226.17L772.499 224.31L775.57 226.398L780.853 237.91L789.698 240.789L832.642 242.561L905.525 226.17L901.471 224.976L905.946 224.31H912.562L914.914 226.17L833.502 247.844L787.381 245.123L777.747 240.894L771.85 227.697L766.673 226.17Z" fill="#C2EF13"/>
<path d="M833.203 184.226L852.297 192.352L852.086 185.034L833.01 178.488L833.203 184.226Z" fill="#262626"/>
<path d="M852.298 192.352L861.002 189.719V182.893L852.087 185.034L852.298 192.352Z" fill="#3C3D33"/>
<path d="M833.01 178.488L840.784 176.733L861.001 182.893L852.086 185.034L833.01 178.488Z" fill="#F8FFDD"/>
<path d="M771.569 222.134L765.058 225.292L745.999 218.273L748.561 217.571L758.319 216.5L771.569 222.134Z" fill="#3C3D33"/>
<path d="M763.04 236.542L765.058 225.292L771.569 222.133L772.499 224.31L766.673 226.17L766.234 234.611L768.129 235.664L763.04 236.542Z" fill="#66685B"/>
<path d="M748.561 208.655L746.596 202.969L748.561 202.864L757.757 202.337L773.447 210.796L770.586 213.604L777.553 216.728L784.117 228.732L791.347 230.785H832.448L906.613 217.009L901.927 215.394L901.962 213.516L914.387 216.465L914.914 219.15L833.519 235.015L790.101 234.383L781.59 230.785L773.411 218.606L748.561 208.655Z" fill="#C2EF13"/>
<path d="M748.562 208.656L749.966 212.692L750.931 215.482L771.13 222.941L779.133 233.681L789.698 238.49L834.256 239.297L914.914 223.432V219.15L833.519 235.015L790.101 234.383L781.59 230.786L773.412 218.606L748.562 208.656Z" fill="#93B212"/>
<path d="M901.927 215.394L901.856 217.799L906.612 217.009L901.927 215.394Z" fill="#93B212"/>
<path d="M757.757 202.337L746.596 202.969L748.561 208.655L764.76 216.289L773.447 210.796L757.757 202.337Z" fill="#F8FFDD"/>
<path d="M773.009 214.693L773.448 210.797L764.761 216.29L767.656 216.5L771.289 213.955L773.009 214.693Z" fill="#999B8C"/>
<path d="M746.613 203.04L746.087 216.5L765.76 223.59L764.76 216.289L746.613 203.04Z" fill="#999B8C"/>
<path d="M767.656 216.5L764.761 216.29L765.761 223.59L769.008 222.169L767.709 221.677L767.656 216.5Z" fill="#66685B"/>
<path d="M765.058 225.292L763.04 236.542L744.121 233.19L745.999 218.273L765.058 225.292Z" fill="#999B8C"/>
<path d="M766.673 226.17L771.85 227.697L777.747 240.894L787.382 245.123L833.502 247.844L914.914 226.17V232.312L833.01 255.741L787.978 252.529L774.465 245.703L770.376 236.542L766.234 234.611L766.673 226.17Z" fill="#93B212"/>
<path d="M746.597 202.969L748.562 204.461L747.685 217.062L746.053 217.641L746.597 202.969Z" fill="#3C3D33"/>
<path d="M743.982 234.348L746.001 218.273L747.685 218.887L746.088 233.541L743.982 234.348Z" fill="#3C3D33"/>
<path d="M745.999 218.272L747.684 218.887L750.913 218.237L747.684 217.062L745.999 218.272Z" fill="#262626"/>
<path d="M757.757 202.337L746.596 202.969L748.561 204.461L760.372 203.741L757.757 202.337Z" fill="#262626"/>
<path d="M760.373 203.742L764.041 201.355L763.251 199.67L757.758 202.338L760.373 203.742Z" fill="#262626"/>
<path d="M770.008 183.472L770.376 187.701L764.041 201.355L763.251 199.67L770.008 183.472Z" fill="#262626"/>
<path d="M770.007 183.472L741.595 196.704L746.596 202.969L757.758 202.337L763.251 199.67L770.007 183.472Z" fill="#999B8C"/>
<path d="M735.154 169.906L741.595 196.704L770.008 183.472L735.154 169.906Z" fill="#66685B"/>
<path d="M911.28 281.012L895.538 277.801L883.218 278.643L872.215 282.837L872.443 288.436L887.553 292.016L904.91 291.682L914.895 286.452L911.263 281.012H911.28ZM899.259 288.295L890.589 288.453L883.043 286.663L882.92 283.873L888.413 281.784L894.573 281.363L902.435 282.96L904.243 285.68L899.259 288.295Z" fill="#F8FFDD"/>
<path d="M872.461 288.435L872.232 291.173L887.676 294.525L887.588 292.016L872.461 288.435Z" fill="#262626"/>
<path d="M887.588 292.016L904.944 291.682L905.524 294.051L887.676 294.525L887.588 292.016Z" fill="#3C3D33"/>
<path d="M914.913 286.453V290.173L905.524 294.051L904.945 291.682L914.913 286.453Z" fill="#3C3D33"/>
<path d="M894.555 281.363V283.908L901.855 285.312L902.417 282.96L894.555 281.363Z" fill="#262626"/>
<path d="M903.259 286.189L901.855 285.312L902.417 282.96L904.242 285.68L903.259 286.189Z" fill="#262626"/>
<path d="M883.025 286.663L884.219 285.312L888.536 283.96L894.555 283.908V281.363L888.413 281.784L882.902 283.873L883.025 286.663Z" fill="#3C3D33"/>
<path d="M800.156 269.324L791.733 267.604L785.152 268.061L779.272 270.307L779.395 273.29L787.486 275.203L796.769 275.028L802.104 272.237L800.156 269.324ZM793.733 273.203L789.1 273.29L785.064 272.343L784.994 270.851L787.924 269.728L791.206 269.5L795.418 270.36L796.383 271.816L793.716 273.203H793.733Z" fill="#F8FFDD"/>
<path d="M779.395 273.29L779.272 274.747L787.538 276.537L787.486 275.203L779.395 273.29Z" fill="#262626"/>
<path d="M787.485 275.203L796.769 275.028L797.085 276.291L787.538 276.537L787.485 275.203Z" fill="#3C3D33"/>
<path d="M802.104 272.237V274.221L797.084 276.291L796.769 275.028L802.104 272.237Z" fill="#3C3D33"/>
<path d="M791.223 269.5V270.868L795.119 271.623L795.417 270.36L791.223 269.5Z" fill="#262626"/>
<path d="M795.875 272.097L795.12 271.623L795.418 270.359L796.401 271.816L795.875 272.097Z" fill="#262626"/>
<path d="M785.046 272.343L785.695 271.623L787.994 270.904L791.223 270.868V269.5L787.924 269.728L784.993 270.851L785.046 272.343Z" fill="#3C3D33"/>
<path d="M331.374 159.043L315.632 155.831L303.312 156.673L292.309 160.868L292.537 166.466L307.647 170.046L325.003 169.713L334.989 164.483L331.356 159.043H331.374ZM319.335 166.308L310.665 166.466L303.119 164.676L302.996 161.886L308.489 159.797L314.649 159.376L322.511 160.973L324.319 163.693L319.335 166.308Z" fill="#F8FFDD"/>
<path d="M292.537 166.449L292.309 169.204L307.752 172.538L307.664 170.029L292.537 166.449Z" fill="#262626"/>
<path d="M307.665 170.029L325.022 169.713L325.601 172.064L307.753 172.538L307.665 170.029Z" fill="#3C3D33"/>
<path d="M335.006 164.483V168.186L325.6 172.064L325.021 169.713L335.006 164.483Z" fill="#3C3D33"/>
<path d="M314.631 159.376V161.938L321.931 163.342L322.511 160.991L314.631 159.376Z" fill="#262626"/>
<path d="M323.337 164.22L321.933 163.342L322.512 160.99L324.319 163.711L323.337 164.22Z" fill="#262626"/>
<path d="M303.119 164.694L304.295 163.342L308.612 161.991L314.631 161.938V159.376L308.489 159.797L302.996 161.903L303.119 164.694Z" fill="#3C3D33"/>
<path d="M1001.42 246.089L985.674 242.877L973.354 243.719L962.351 247.914L962.579 253.512L977.689 257.092L995.045 256.759L1005.03 251.529L1001.4 246.089H1001.42ZM989.377 253.354L980.707 253.512L973.161 251.722L973.038 248.932L978.531 246.843L984.691 246.422L992.553 248.019L994.361 250.739L989.377 253.354Z" fill="#F8FFDD"/>
<path d="M962.596 253.512L962.368 256.25L977.794 259.602L977.707 257.075L962.596 253.512Z" fill="#262626"/>
<path d="M977.707 257.075L995.063 256.759L995.643 259.128L977.795 259.602L977.707 257.075Z" fill="#3C3D33"/>
<path d="M1005.05 251.529V255.232L995.642 259.128L995.062 256.759L1005.05 251.529Z" fill="#3C3D33"/>
<path d="M984.692 246.44V248.984L991.993 250.388L992.555 248.037L984.692 246.44Z" fill="#262626"/>
<path d="M993.395 251.266L991.991 250.388L992.553 248.036L994.378 250.757L993.395 251.266Z" fill="#262626"/>
<path d="M973.161 251.74L974.354 250.388L978.672 249.037L984.691 248.984V246.44L978.531 246.861L973.038 248.949L973.161 251.74Z" fill="#3C3D33"/>
<path d="M919.934 283.996L963.404 265.007L984.077 269.289L941.081 289.348L919.934 283.996Z" fill="#F8FFDD"/>
<path d="M931.305 281.626L927.286 283.346L939.115 286.663L945.731 283.013L941.256 281.767L942.554 280.802L948.556 282.662L953.874 278.889L948.117 277.801L949.416 277.169L957.191 279.556L962.368 276.133L956.418 274.396L957.261 273.887L963.614 276.011L968.843 273.185L964.351 271.184H966.018L972.547 273.255L978.513 269.816L970.072 267.85L963.403 266.464L931.305 281.626Z" fill="#93B212"/>
<path d="M894.363 238.191L849.12 251.143L848.909 254.898L896.153 239.894L894.363 238.191Z" fill="#262626"/>
<path d="M971.722 265.007L889.362 239.894L885.202 241.736L882.377 244.86L964.456 267.92L964.316 270.079L972.213 272.167L971.722 265.007Z" fill="#262626"/>
<path d="M971.723 265.007L975.548 263.621L894.364 238.191L888.854 239.753L971.723 265.007Z" fill="#F8FFDD"/>
<path d="M975.547 263.621V270.289L972.213 272.167L971.722 265.007L975.547 263.621Z" fill="#3C3D33"/>
<path d="M962.896 267.85L880.536 242.754L875.867 244.86L873.568 247.721L955.63 270.763L955.507 272.922L963.405 275.028L962.896 267.85Z" fill="#262626"/>
<path d="M962.897 267.85L966.723 266.464L884.713 240.964L879.677 242.403L962.897 267.85Z" fill="#F8FFDD"/>
<path d="M966.722 266.464V273.132L963.405 275.028L962.896 267.85L966.722 266.464Z" fill="#3C3D33"/>
<path d="M955.927 271.185L873.567 246.089L866.722 247.387L866.582 251.055L948.661 274.098L948.521 276.274L956.418 278.362L955.927 271.185Z" fill="#262626"/>
<path d="M955.927 271.185L959.753 269.816L875.796 243.509L870.514 245.018L955.927 271.185Z" fill="#F8FFDD"/>
<path d="M959.754 269.816V276.467L956.419 278.362L955.928 271.185L959.754 269.816Z" fill="#3C3D33"/>
<path d="M947.24 274.063L864.88 248.967L858.036 250.265L857.896 253.933L939.975 276.976L939.834 279.134L947.732 281.24L947.24 274.063Z" fill="#262626"/>
<path d="M947.239 274.063L951.065 272.694L866.775 246.089L860.983 247.738L947.239 274.063Z" fill="#F8FFDD"/>
<path d="M951.066 272.694V279.345L947.732 281.24L947.24 274.063L951.066 272.694Z" fill="#3C3D33"/>
<path d="M938.149 277.906L849.12 251.143L848.944 254.091L848.909 254.899L930.883 280.819L930.743 282.978L938.64 285.066L938.149 277.906Z" fill="#262626"/>
<path d="M938.149 277.906L941.975 276.52L855.964 249.177L849.12 251.143L938.149 277.906Z" fill="#F8FFDD"/>
<path d="M941.974 276.52V283.188L938.64 285.066L938.148 277.906L941.974 276.52Z" fill="#3C3D33"/>
<path d="M940.291 300.826L965.211 290.156L972.547 291.84L948.557 302.739L940.291 300.826Z" fill="#F8FFDD"/>
<path d="M940.291 303.089V300.826L948.557 302.738V305.073L940.291 303.089Z" fill="#3C3D33"/>
<path d="M972.547 293.788V291.84L948.557 302.738V305.073L972.547 293.788Z" fill="#66685B"/>
<path d="M1071.32 241.333L1086.23 235.927L1104.2 240.578L1089.29 246.65L1071.32 241.333Z" fill="#F8FFDD"/>
<path d="M1071.31 241.333L1070.98 245.65L1088.69 250.757L1089.29 246.65L1071.31 241.333Z" fill="#3C3D33"/>
<path d="M1104.2 240.578L1103.89 244.755L1088.69 250.757L1089.29 246.65L1104.2 240.578Z" fill="#66685B"/>
<path d="M927.285 334.591L952.223 323.921L959.541 325.606L935.551 336.504L927.285 334.591Z" fill="#F8FFDD"/>
<path d="M927.285 336.855V334.591L935.551 336.504V338.838L927.285 336.855Z" fill="#3C3D33"/>
<path d="M959.541 327.554V325.606L935.551 336.504V338.838L959.541 327.554Z" fill="#66685B"/>
<path d="M1036.55 288.278L1061.47 277.608L1068.8 279.292L1044.8 290.208L1036.55 288.278Z" fill="#F8FFDD"/>
<path d="M1036.55 290.559V288.278L1044.8 290.208V292.525L1036.55 290.559Z" fill="#3C3D33"/>
<path d="M1068.81 281.258V279.292L1044.8 290.208V292.525L1068.81 281.258Z" fill="#66685B"/>
<path d="M1046.94 256.741L1071.86 246.071L1079.2 247.756L1055.19 258.654L1046.94 256.741Z" fill="#F8FFDD"/>
<path d="M1046.94 259.005V256.741L1055.19 258.654V260.988L1046.94 259.005Z" fill="#3C3D33"/>
<path d="M1079.2 249.704V247.756L1055.19 258.654V260.988L1079.2 249.704Z" fill="#66685B"/>
<path d="M911.421 307.407L925.864 300.878L944.133 304.143L929.743 311.32L911.421 307.407Z" fill="#F8FFDD"/>
<path d="M911.421 307.407L911.403 311.724L929.444 315.462L929.743 311.32L911.421 307.407Z" fill="#3C3D33"/>
<path d="M944.133 304.143V308.337L929.444 315.462L929.743 311.32L944.133 304.143Z" fill="#66685B"/>
<path d="M951.347 316.392L965.79 309.881L984.077 313.146L969.668 320.323L951.347 316.392Z" fill="#F8FFDD"/>
<path d="M951.347 316.392L951.329 320.727L969.37 324.465L969.668 320.323L951.347 316.392Z" fill="#3C3D33"/>
<path d="M984.077 313.146V317.34L969.37 324.465L969.668 320.323L984.077 313.146Z" fill="#66685B"/>
<path d="M857.245 333.099L871.706 326.571L889.975 329.835L875.567 337.03L857.245 333.099Z" fill="#F8FFDD"/>
<path d="M857.245 333.099V337.434L875.286 341.172L875.567 337.03L857.245 333.099Z" fill="#3C3D33"/>
<path d="M889.976 329.835V334.047L875.287 341.172L875.568 337.03L889.976 329.835Z" fill="#66685B"/>
<path d="M897.188 342.102L911.631 335.574L929.9 338.838L915.509 346.033L897.188 342.102Z" fill="#F8FFDD"/>
<path d="M897.187 342.102L897.17 346.437L915.211 350.175L915.509 346.033L897.187 342.102Z" fill="#3C3D33"/>
<path d="M929.9 338.838V343.032L915.211 350.175L915.509 346.033L929.9 338.838Z" fill="#66685B"/>
<path d="M968.845 284.873L983.797 279.556L1001.73 284.312L986.78 290.296L968.845 284.873Z" fill="#F8FFDD"/>
<path d="M968.845 284.873L968.477 289.173L986.149 294.385L986.781 290.296L968.845 284.873Z" fill="#3C3D33"/>
<path d="M1001.73 284.312L1001.38 288.488L986.149 294.385L986.781 290.296L1001.73 284.312Z" fill="#66685B"/>
<path d="M1008.66 295.21L1023.11 288.681L1041.39 291.946L1026.98 299.141L1008.66 295.21Z" fill="#F8FFDD"/>
<path d="M1008.66 295.21L1008.65 299.544L1026.69 303.283L1026.99 299.141L1008.66 295.21Z" fill="#3C3D33"/>
<path d="M1041.39 291.946V296.14L1026.69 303.283L1026.99 299.141L1041.39 291.946Z" fill="#66685B"/>
<path d="M1019.84 262.866L1034.48 256.759L1052.66 260.532L1038.06 267.306L1019.84 262.866Z" fill="#F8FFDD"/>
<path d="M1019.84 262.866L1019.72 267.201L1037.65 271.448L1038.06 267.306L1019.84 262.866Z" fill="#3C3D33"/>
<path d="M1052.66 260.532L1052.54 264.726L1037.65 271.448L1038.06 267.306L1052.66 260.532Z" fill="#66685B"/>
<path d="M1059.75 272.325L1074.2 265.797L1092.48 269.061L1078.07 276.256L1059.75 272.325Z" fill="#F8FFDD"/>
<path d="M1059.75 272.325L1059.73 276.66L1077.79 280.398L1078.07 276.256L1059.75 272.325Z" fill="#3C3D33"/>
<path d="M1092.48 269.061V273.255L1077.79 280.398L1078.07 276.256L1092.48 269.061Z" fill="#66685B"/>
<path d="M1111.24 250.494L1126.09 244.93L1144.11 249.405L1129.25 255.618L1111.24 250.494Z" fill="#F8FFDD"/>
<path d="M1111.24 250.494L1110.94 254.811L1128.69 259.742L1129.25 255.618L1111.24 250.494Z" fill="#3C3D33"/>
<path d="M1144.11 249.405L1143.83 253.6L1128.69 259.742L1129.25 255.618L1144.11 249.405Z" fill="#66685B"/>
<path d="M974.126 326.746L981.199 329.028L978.338 330.397L976.443 329.73L977.899 329.063L972.529 327.431L974.126 326.746Z" fill="#494942"/>
<path d="M972.318 326.185L974.126 326.746L976.6 325.693L974.846 325.185L972.318 326.185Z" fill="#494942"/>
<path d="M978.181 326.132L976.602 325.694L977.584 325.29L979.006 325.694L978.181 326.132Z" fill="#494942"/>
<path d="M977.618 324.096L980.444 324.974L981.111 324.746L978.408 323.903L977.618 324.096Z" fill="#494942"/>
<path d="M982.708 325.22L981.111 324.746L982.077 324.483L983.796 324.991L982.708 325.22Z" fill="#494942"/>
<path d="M986.147 325.571L983.795 324.992L984.708 324.728L988.463 325.834L984.726 327.22L983.427 326.817L986.147 325.571Z" fill="#494942"/>
<path d="M981.233 321.991L982.918 322.464L983.708 322.201L982.023 321.727L981.233 321.991Z" fill="#494942"/>
<path d="M984.777 322.991L986.515 323.482L987.462 323.131L985.655 322.675L984.777 322.991Z" fill="#494942"/>
<path d="M991.342 324.097L987.464 323.131L988.271 322.833L992.343 323.833L991.342 324.097Z" fill="#494942"/>
<path d="M985.165 320.06L988.254 318.99L989.605 319.288L986.393 320.429L985.165 320.06Z" fill="#494942"/>
<path d="M988.132 320.902L989.659 321.271L990.817 320.832L989.36 320.446L988.132 320.902Z" fill="#494942"/>
<path d="M992.641 320.06L990.815 320.832L992.255 321.201L994.132 320.464L992.641 320.06Z" fill="#494942"/>
<path d="M1065.21 259.953L1068.03 260.848L1068.7 260.62L1066 259.777L1065.21 259.953Z" fill="#494942"/>
<path d="M1070.28 261.094L1068.7 260.62L1069.67 260.356L1071.37 260.848L1070.28 261.094Z" fill="#494942"/>
<path d="M1073.74 261.445L1071.37 260.848L1072.3 260.585L1076.05 261.708L1072.3 263.094L1071.02 262.673L1073.74 261.445Z" fill="#494942"/>
<path d="M1073.4 255.53L1075.09 256.004L1075.9 255.741L1074.21 255.267L1073.4 255.53Z" fill="#494942"/>
<path d="M1076.95 256.531L1078.68 257.022L1079.63 256.671L1077.82 256.215L1076.95 256.531Z" fill="#494942"/>
<path d="M1083.53 257.636L1079.63 256.671L1080.44 256.373L1084.51 257.373L1083.53 257.636Z" fill="#494942"/>
<path d="M1021.49 276.52L1017.3 275.449L1016.35 275.835L1020.37 276.853L1021.49 276.52Z" fill="#494942"/>
<path d="M1013.98 275.256L1016.35 275.835L1014.95 276.292L1012.4 275.695L1013.98 275.256Z" fill="#494942"/>
<path d="M1008.91 275.028L1012.4 275.695L1011.09 276.169L1005.5 274.817L1010.88 272.501L1012.79 273.01L1008.91 275.028Z" fill="#494942"/>
<path d="M1015.96 279.556L1013.45 278.994L1012.31 279.45L1014.82 279.994L1015.96 279.556Z" fill="#494942"/>
<path d="M1010.7 278.38L1008.12 277.801L1006.77 278.38L1009.44 278.906L1010.7 278.38Z" fill="#494942"/>
<path d="M1000.99 277.274L1006.77 278.38L1005.61 278.871L999.573 277.748L1000.99 277.274Z" fill="#494942"/>
<path d="M1068.7 258.092L1071.79 257.022L1073.12 257.32L1069.93 258.461L1068.7 258.092Z" fill="#494942"/>
<path d="M1071.67 258.917L1073.18 259.303L1074.35 258.847L1072.88 258.478L1071.67 258.917Z" fill="#494942"/>
<path d="M1076.18 258.092L1074.35 258.847L1075.79 259.233L1077.65 258.496L1076.18 258.092Z" fill="#494942"/>
<path d="M888.817 323.289L897.557 319.516L901.506 320.113L892.45 324.096L888.817 323.289Z" fill="#494942"/>
<path d="M897.592 325.062L902.084 325.834L905.366 324.289L901.032 323.5L897.592 325.062Z" fill="#494942"/>
<path d="M910.526 321.71L905.366 324.289L909.631 325.079L914.878 322.552L910.526 321.71Z" fill="#494942"/>
<path d="M695.334 148.864L758.618 123.944L751.966 121.873L684.471 145.442L695.334 148.864Z" fill="#3C3D33"/>
<path d="M432.107 78.034L437.478 71.9092L438.636 73.9449L432.107 78.034Z" fill="#3C3D33"/>
<path d="M789.698 220.888L810.372 219.15V223.59L789.909 224.977L789.698 220.888Z" fill="#262626"/>
</svg>
